<svg xmlns="http://www.w3.org/2000/svg" viewBox="0 0 1024 1035" role="img" aria-hidden="true">
  <path
    d="M 973.500 219.008 C 967.450 220.530, 949.225 224.975, 933 228.886 C 916.775 232.797, 892.250 238.724, 878.500 242.055 C 864.750 245.387, 847.875 249.464, 841 251.115 C 806.362 259.432, 775.556 266.906, 740.500 275.497 C 728.400 278.462, 712.650 282.291, 705.500 284.005 C 683.265 289.338, 664.221 293.939, 645 298.623 C 634.825 301.102, 619.975 304.700, 612 306.617 C 595.355 310.620, 560.736 319.018, 517.500 329.544 C 501 333.561, 483.450 337.806, 478.500 338.977 C 466.101 341.910, 422.328 352.522, 387.500 361.038 C 371.550 364.939, 347.475 370.772, 334 374.002 C 320.525 377.232, 299.150 382.394, 286.500 385.475 C 273.850 388.555, 253.150 393.583, 240.500 396.647 C 227.850 399.712, 203.100 405.742, 185.500 410.048 C 167.900 414.353, 147.650 419.269, 140.500 420.972 C 123.576 425.003, 121 425.872, 121 427.552 C 121 429.266, 124.485 431.081, 133 433.802 C 146.719 438.185, 150 440.546, 150 446.034 C 150 451.291, 145.071 454.369, 120 464.765 C 108.278 469.626, 51.708 492.406, 42.111 496.129 C 40.798 496.639, 39.963 497.297, 40.257 497.591 C 40.756 498.089, 61.669 491.731, 119 473.654 C 182.640 453.586, 207.521 445.832, 218.500 442.645 C 225.100 440.729, 246.250 434.579, 265.500 428.978 C 284.750 423.377, 302.525 418.232, 305 417.545 C 312.964 415.334, 415.037 386.144, 429 382.084 C 512.641 357.768, 551.619 348.384, 558.354 350.944 C 565.514 353.667, 557.620 359.477, 533.224 369.439 C 520.326 374.706, 501.022 381.620, 459 396.020 C 441.675 401.958, 416.363 410.682, 402.750 415.408 C 350.855 433.424, 327.491 441.549, 297 452.183 C 279.675 458.225, 259.200 465.345, 251.500 468.003 C 233.891 474.084, 234 474.040, 234 475.084 C 234 477.036, 239.445 479.237, 252.464 482.545 C 260.015 484.463, 267.050 486.492, 268.097 487.052 C 271.406 488.823, 270.484 493.110, 265.750 497.958 C 262.267 501.526, 255.476 505.267, 228.115 518.688 C 209.754 527.695, 194.938 535.271, 195.191 535.525 C 195.778 536.111, 209.640 531.343, 237.500 520.972 C 249.600 516.467, 267.150 509.956, 276.500 506.502 C 308.122 494.822, 345.108 480.926, 453.500 440.002 C 502.643 421.449, 531.583 410.198, 621.508 374.689 C 679.899 351.632, 704.454 343.063, 735.118 335.040 C 748.229 331.610, 749.005 331.509, 748.988 333.250 C 748.962 335.828, 724.604 350.177, 695 365.054 C 672.377 376.423, 661.830 381.352, 586 415.994 C 567.025 424.662, 542.725 435.809, 532 440.765 C 521.275 445.721, 495.175 457.771, 474 467.543 C 452.825 477.314, 426.275 489.570, 415 494.776 C 403.725 499.983, 388.875 506.836, 382 510.006 C 357.071 521.500, 353.879 523.138, 354.251 524.253 C 354.459 524.877, 358.126 526.602, 362.399 528.087 C 372.354 531.547, 376 534.878, 376 540.513 C 376 543.528, 375.389 545.211, 373.750 546.712 C 372.512 547.845, 363.625 553.172, 354 558.549 C 333.683 569.901, 328.637 572.971, 329.266 573.599 C 331.300 575.634, 414.806 534.738, 457 511.042 C 461.675 508.417, 470.450 503.675, 476.500 500.504 C 482.550 497.334, 491.100 492.803, 495.500 490.434 C 513.248 480.882, 537.496 468.408, 555 459.827 C 590.862 442.245, 604 438.546, 604 446.032 C 604 451.127, 591.523 460.058, 551 483.969 C 541.375 489.648, 513.715 505.955, 489.533 520.206 C 465.351 534.457, 442.412 548.228, 438.558 550.808 C 426.283 559.026, 424.239 566.287, 427.067 591.643 C 428.108 600.980, 428.071 601.335, 425.516 606.557 C 424.043 609.567, 420.626 613.967, 417.700 616.621 C 412.418 621.411, 390.674 637.797, 363.500 657.464 C 337.376 676.371, 330.912 681.246, 331.365 681.699 C 332.071 682.405, 338.524 678.841, 362.685 664.400 C 403 640.305, 429.040 622.908, 481.500 585.020 C 490.850 578.268, 500.486 571.338, 502.914 569.621 C 515.354 560.825, 562.120 525.373, 581 510.427 C 637.740 465.508, 649.695 457.870, 650.827 465.817 C 651.769 472.434, 621.104 502.531, 567.500 547.601 C 557.050 556.388, 539.459 571.209, 528.409 580.538 C 517.358 589.867, 501.875 602.900, 494.002 609.500 C 486.129 616.100, 476.249 624.425, 472.046 628 C 467.843 631.575, 455.909 641.700, 445.526 650.500 C 435.143 659.300, 425.887 667.227, 424.957 668.116 C 422.922 670.063, 422.382 673.679, 421.017 694.500 C 418.832 727.840, 417.811 737.465, 416.030 741.500 C 414.039 746.015, 408.351 752.742, 393.626 768 C 367.902 794.654, 330.415 834.315, 329.632 835.705 C 327.772 839.005, 331.585 835.880, 353.199 816.397 C 365.464 805.340, 385.400 787.380, 397.500 776.486 C 421.049 755.285, 453.976 725.314, 476.037 705 C 549.831 637.049, 570.037 619.834, 589.088 608.685 C 594.493 605.522, 596 605.338, 596 607.845 C 596 615.086, 572.015 641.130, 487.573 725.581 C 436.296 776.865, 417.765 796.013, 415.649 799.903 C 412.581 805.540, 411.868 810.588, 408.623 849.601 C 407.507 863.014, 406.684 867.974, 404.805 872.601 C 402.141 879.161, 387.592 900.145, 345.592 958 C 324.561 986.971, 310.047 1007.563, 310.024 1008.464 C 309.992 1009.754, 309.869 1009.892, 332.554 983 C 343.457 970.075, 358.494 952.300, 365.971 943.500 C 373.447 934.700, 385.829 920.075, 393.486 911 C 401.143 901.925, 412.400 888.650, 418.502 881.500 C 424.604 874.350, 440.375 855.876, 453.548 840.446 C 466.722 825.016, 496.850 789.724, 520.500 762.018 C 573.530 699.895, 675.484 580.686, 686.007 568.500 C 708.330 542.649, 741.076 504.535, 761.185 481 C 773.639 466.425, 787.338 450.450, 791.627 445.500 C 795.917 440.550, 807.752 426.825, 817.926 415 C 828.100 403.175, 840.941 388.304, 846.462 381.954 C 851.983 375.603, 865.337 360.078, 876.137 347.454 C 886.937 334.829, 902.012 317.273, 909.637 308.441 C 976.160 231.381, 988 217.503, 988 216.591 C 988 215.613, 985.036 216.107, 973.500 219.008"
    fill="#000"
    fill-rule="evenodd"
  />
</svg>
