<svg xmlns="http://www.w3.org/2000/svg" viewBox="0 0 364 368" fill="none">
  <g fill="currentColor">
    <path d="M 0.00 178.50 L 2.00 178.50 L 6.00 174.50 L 12.00 173.50 L 15.00 170.50 L 21.00 169.50 L 24.00 166.50 L 31.00 165.50 L 34.00 162.50 L 44.00 160.50 L 45.50 158.00 L 38.00 156.50 L 35.50 152.00 L 35.50 148.00 L 40.00 145.50 L 50.00 145.50 L 54.00 142.50 L 65.00 141.50 L 70.00 138.50 L 81.00 137.50 L 88.00 134.50 L 94.00 134.50 L 97.00 132.50 L 103.00 132.50 L 113.00 128.50 L 120.00 128.50 L 125.00 125.50 L 137.00 124.50 L 142.00 121.50 L 151.00 121.50 L 156.00 118.50 L 167.00 117.50 L 172.00 114.50 L 183.00 113.50 L 188.00 110.50 L 199.00 109.50 L 204.00 106.50 L 214.00 105.50 L 220.00 102.50 L 225.00 102.50 L 237.00 98.50 L 251.00 96.50 L 258.00 93.50 L 269.00 92.50 L 275.00 89.50 L 283.00 89.50 L 291.00 85.50 L 299.00 85.50 L 304.00 82.50 L 315.00 81.50 L 320.00 78.50 L 331.00 77.50 L 336.00 74.50 L 342.00 74.50 L 349.00 71.50 L 352.00 71.50 L 353.50 73.00 L 352.50 81.00 L 344.50 89.00 L 340.50 95.00 L 338.50 96.00 L 333.50 103.00 L 314.50 124.00 L 310.50 130.00 L 289.50 153.00 L 268.50 179.00 L 257.50 190.00 L 244.50 207.00 L 241.50 209.00 L 220.50 235.00 L 217.50 237.00 L 204.50 254.00 L 193.50 265.00 L 184.50 277.00 L 157.50 307.00 L 149.50 318.00 L 133.50 335.00 L 112.50 362.00 L 108.50 365.00 L 108.50 367.00 Z" />
    <path d="M 100.50 367.00 L 102.50 360.00 L 111.50 347.00 L 113.50 346.00 L 114.50 343.00 L 117.50 341.00 L 117.50 339.00 L 121.50 335.00 L 121.50 333.00 L 128.50 325.00 L 129.50 322.00 L 138.50 310.00 L 138.50 303.00 L 139.50 302.00 L 139.50 295.00 L 140.50 294.00 L 141.50 284.00 L 149.50 274.00 L 147.00 274.50 L 132.00 289.50 L 126.00 293.50 L 111.00 308.50 L 105.00 312.50 L 102.00 316.50 L 95.00 320.50 L 91.50 317.00 L 93.50 313.00 L 102.50 303.00 L 140.50 266.00 L 142.50 263.00 L 142.50 254.00 L 145.50 242.00 L 145.50 235.00 L 159.00 224.50 L 161.00 221.50 L 164.00 220.50 L 170.50 214.00 L 167.00 214.50 L 153.00 225.50 L 151.00 225.50 L 136.00 236.50 L 131.00 238.50 L 123.00 244.50 L 119.00 245.50 L 110.00 252.50 L 106.00 253.50 L 104.00 256.50 L 100.00 257.50 L 98.00 260.50 L 92.00 261.50 L 89.50 260.00 L 89.50 258.00 L 96.00 250.50 L 99.00 249.50 L 114.00 237.50 L 116.00 237.50 L 118.00 234.50 L 127.00 229.50 L 129.00 226.50 L 132.00 225.50 L 136.00 221.50 L 145.50 216.00 L 146.50 213.00 L 145.50 209.00 L 145.50 202.00 L 146.50 200.00 L 145.50 199.00 L 148.50 194.00 L 147.00 193.50 L 143.00 196.50 L 121.00 206.50 L 119.00 208.50 L 112.00 210.50 L 107.00 213.50 L 104.00 213.50 L 100.00 216.50 L 96.00 216.50 L 94.50 215.00 L 94.50 212.00 L 100.00 206.50 L 104.00 205.50 L 107.00 202.50 L 111.00 201.50 L 114.00 198.50 L 118.00 197.50 L 121.00 194.50 L 126.50 192.00 L 125.00 189.50 L 122.00 189.50 L 120.50 188.00 L 120.50 183.00 L 122.00 181.50 L 125.00 181.50 L 128.00 178.50 L 135.00 176.50 L 136.00 174.50 L 142.00 173.50 L 145.00 170.50 L 150.00 169.50 L 154.00 166.50 L 158.00 165.50 L 164.00 161.50 L 169.00 160.50 L 175.00 156.50 L 178.00 156.50 L 180.50 154.00 L 178.00 153.50 L 171.00 157.50 L 167.00 157.50 L 163.00 160.50 L 156.00 161.50 L 153.00 164.50 L 146.00 165.50 L 143.00 168.50 L 136.00 169.50 L 133.00 172.50 L 126.00 173.50 L 115.00 178.50 L 112.00 178.50 L 107.00 181.50 L 100.00 182.50 L 96.00 185.50 L 90.00 185.50 L 85.00 189.50 L 79.00 189.50 L 74.00 193.50 L 69.00 193.50 L 66.00 196.50 L 58.00 197.50 L 55.00 200.50 L 50.00 200.50 L 47.50 198.00 L 47.50 194.00 L 49.00 192.50 L 53.00 191.50 L 64.00 185.50 L 67.00 185.50 L 73.00 181.50 L 77.00 181.50 L 83.00 177.50 L 87.00 177.50 L 88.50 176.00 L 84.00 173.50 L 81.00 173.50 L 77.50 171.00 L 76.50 166.00 L 79.00 163.50 L 84.00 161.50 L 92.00 160.50 L 96.00 157.50 L 104.00 156.50 L 106.50 154.00 L 101.00 153.50 L 92.00 157.50 L 86.00 157.50 L 81.00 160.50 L 72.00 161.50 L 68.00 164.50 L 60.00 165.50 L 56.00 168.50 L 48.00 169.50 L 44.00 172.50 L 37.00 173.50 L 33.00 176.50 L 29.00 176.50 L 16.00 181.50 L 10.00 181.50 L 6.00 184.50 L 0.00 184.50 Z" />
  </g>
</svg>