<svg xmlns="http://www.w3.org/2000/svg" width="1376" height="768" viewBox="0 0 1376 768" version="1.1"><path d="M 258.044 232.272 C 255.170 233.727, 247.670 246.458, 247.925 249.449 C 248.021 250.577, 248.190 253.075, 248.300 255 L 248.500 258.500 242.253 258.798 C 237.476 259.025, 234.065 258.437, 227.753 256.298 L 219.500 253.500 184.500 253.500 C 150.097 253.500, 149.125 253.556, 127.500 256.777 C 95.236 261.582, 91.661 263.708, 82.443 283.569 C 76.465 296.449, 69.557 313.386, 67.615 319.923 C 64.324 331.007, 62.598 353.150, 62.582 384.500 C 62.558 431.615, 64.789 445.609, 76.687 473 C 87.925 498.870, 92.845 505.453, 103.173 508.440 C 106.103 509.287, 117.950 511.447, 129.500 513.240 C 150.121 516.441, 151.105 516.500, 184 516.483 L 217.500 516.466 227.057 513.677 C 233.922 511.674, 238.288 510.975, 242.557 511.194 C 248.491 511.500, 248.500 511.505, 248.247 514.500 C 247.730 520.629, 248.044 522.108, 250.961 527.276 C 255.055 534.532, 257.385 536.794, 261.573 537.580 C 266.319 538.470, 270 536.757, 270 533.659 C 270 531.127, 264.569 517.169, 262.956 515.556 C 260.066 512.666, 262.791 512.506, 308.990 512.854 C 355.283 513.204, 356.034 513.178, 359.548 511.104 C 363.050 509.038, 364.051 509, 415.123 509 C 452.693 509, 467.738 508.678, 469.316 507.839 C 470.517 507.200, 473.604 504.907, 476.176 502.744 L 480.852 498.812 498.201 499.530 C 513.988 500.183, 515.679 500.091, 516.992 498.509 C 518.275 496.963, 518.177 496.562, 516.107 494.885 C 514.826 493.848, 512.782 493, 511.564 493 C 508.212 493, 495.556 488.456, 493.134 486.383 C 491.658 485.119, 491 483.397, 491 480.797 C 491 477.521, 491.353 476.955, 493.750 476.388 C 496.531 475.730, 501 472.320, 501 470.856 C 501 470.418, 499.362 471.172, 497.360 472.530 C 492.755 475.655, 490.907 475.634, 487.077 472.411 C 484.138 469.939, 483.141 467.548, 484.750 466.833 C 485.964 466.294, 491 459.230, 491 458.067 C 491 457.480, 492.533 457, 494.406 457 C 497.174 457, 497.726 456.668, 497.349 455.228 C 497.075 454.177, 497.927 452.478, 499.443 451.054 C 501.252 449.354, 502.004 447.605, 502.015 445.076 C 502.041 439.016, 502.309 438.908, 516.578 439.219 L 529.500 439.500 529.155 446.500 C 528.948 450.682, 528.238 454.142, 527.390 455.095 C 526.217 456.413, 526.016 461.974, 526.235 487.091 L 526.500 517.492 530.691 518.376 C 538.420 520.005, 538 521.835, 538 486.518 C 538 465.614, 537.635 454.387, 536.917 453.236 C 536.198 452.084, 536.115 449.483, 536.670 445.500 L 537.506 439.500 544.753 439.206 L 552 438.912 552 384.956 L 552 331 545.067 331 C 537.565 331, 537.909 331.272, 536.486 324.209 C 536.098 322.282, 536.280 320.367, 536.926 319.589 C 537.691 318.668, 537.948 308.785, 537.765 287.380 L 537.500 256.500 534.444 256.201 C 532.763 256.037, 530.175 256.363, 528.694 256.926 L 526 257.950 526 287.647 C 526 311.599, 526.269 317.648, 527.392 318.921 C 528.158 319.790, 529.100 322.863, 529.486 325.750 L 530.188 331 518.344 331.001 L 506.500 331.002 506.815 309.751 C 507.119 289.192, 507.059 288.425, 504.988 286.210 C 503.810 284.950, 501.531 283.656, 499.923 283.335 C 493.248 282, 497.046 279.788, 513.990 275.142 C 516.791 274.374, 517.901 271.208, 515.848 269.843 C 515.083 269.334, 506.793 269.235, 496.681 269.614 L 478.863 270.282 474.567 266.066 C 471.885 263.433, 468.814 261.512, 466.386 260.949 C 464.249 260.453, 440.323 260.037, 413.219 260.024 C 370.321 260.003, 363.863 260.194, 363.362 261.500 C 362.481 263.795, 359.663 263.397, 360.273 261.065 C 360.575 259.911, 360.185 258.901, 359.308 258.565 C 358.499 258.254, 336.048 258, 309.418 258 C 268.959 258, 261 257.774, 261 256.622 C 261 255.865, 261.646 254.709, 262.435 254.054 C 264.335 252.477, 270 238.784, 270 235.770 C 270 234.466, 269.460 232.860, 268.800 232.200 C 267.243 230.643, 261.182 230.684, 258.044 232.272 M 546.115 257.039 C 542.499 260.655, 541.571 264.757, 542.243 274.149 C 542.666 280.061, 543.170 281.568, 545.558 284.060 C 547.107 285.677, 549.190 287, 550.187 287 C 551.752 287, 552 286.110, 552 280.500 C 552 275.389, 552.321 274, 553.500 274 C 554.548 274, 555 275.056, 555 277.500 C 555 279.866, 555.463 281, 556.428 281 C 557.562 281, 557.738 282.141, 557.282 286.556 C 556.758 291.637, 556.892 292.159, 558.854 292.672 C 561.774 293.436, 561.887 298.535, 559 299.290 C 557.900 299.577, 557 300.530, 557 301.406 C 557 302.283, 556.550 303, 556 303 C 555.442 303, 555 305.703, 555 309.108 C 555 315.071, 555.058 315.202, 557.421 314.609 C 561.317 313.631, 563 314.837, 563 318.607 C 563 321.529, 562.664 322, 560.582 322 C 555.659 322, 555 322.838, 555 329.107 L 555 335 558.500 335 C 561.465 335, 561.999 335.344, 561.994 337.250 C 561.990 338.694, 560.926 340.104, 559.024 341.186 C 556.240 342.770, 556.128 343.068, 557.179 346.083 C 558.060 348.611, 558.002 349.741, 556.907 351.397 C 555.797 353.074, 555.445 361.110, 555.167 391.110 L 554.819 428.719 557.160 429.465 C 558.447 429.875, 560.229 430.145, 561.120 430.064 C 562.451 429.944, 562.766 431.088, 562.882 436.459 C 563.024 443.008, 562.005 444.605, 559.367 441.967 C 558.799 441.399, 557.584 441.222, 556.667 441.574 C 555.396 442.062, 555 443.495, 555 447.607 C 555 453.405, 556.021 454.243, 560.044 451.750 C 563.261 449.756, 564.105 452.324, 563.577 462.500 C 563.320 467.450, 563.086 476.563, 563.055 482.750 L 563 494 559 494 C 556.111 494, 555 494.417, 555 495.500 C 555 496.548, 553.944 497, 551.500 497 C 548.964 497, 548 496.561, 548 495.406 C 548 494.530, 548.900 493.577, 550 493.290 C 551.100 493.002, 552 492.144, 552 491.383 C 552 489.074, 548.058 489.834, 545.452 492.646 C 543.195 495.082, 543 496.073, 543 505.130 C 543 514.587, 543.113 515.095, 545.917 518.234 L 548.834 521.500 590.167 521.809 C 636.202 522.153, 636.281 522.143, 639.447 515.470 C 642.006 510.078, 641.177 491.669, 638.566 495.893 C 638.087 496.669, 627.134 497, 601.941 497 L 566 497 566 494.500 L 566 492 613.257 492 L 660.514 492 660.149 503.492 L 659.785 514.985 663.324 518.524 L 666.863 522.063 709.367 521.781 L 751.870 521.500 754.935 518.563 C 757.945 515.679, 758 515.450, 758 505.872 C 758 500.448, 757.556 495.844, 757 495.500 C 756.450 495.160, 756 494.234, 756 493.441 C 756 492.193, 774.980 492, 897.617 492 L 1039.233 492 1038.458 494.250 C 1036.844 498.940, 1036.804 511.595, 1038.392 515.396 C 1041.108 521.896, 1041.865 522, 1086.564 522 C 1129.785 522, 1130.073 521.964, 1133.172 516.183 C 1134.675 513.379, 1134.989 499.066, 1133.642 494.750 L 1132.783 492 1140.008 492 C 1147.079 492, 1147.216 492.048, 1146.406 494.250 C 1145.951 495.488, 1145.561 500.878, 1145.540 506.229 C 1145.502 515.552, 1145.616 516.074, 1148.272 518.729 L 1151.044 521.500 1192.951 521.781 L 1234.859 522.063 1238.430 518.928 L 1242 515.793 1242 506.146 L 1242.001 496.500 1195.577 496.779 L 1149.153 497.057 1148.485 494.953 C 1148.118 493.796, 1148.006 492.661, 1148.236 492.430 C 1148.467 492.200, 1178.883 491.993, 1215.828 491.971 L 1283 491.931 1283 471.965 C 1283 450.527, 1283.047 450.349, 1288.066 453.035 C 1290.861 454.531, 1290.702 460.395, 1287.810 462.420 C 1286.606 463.264, 1285.970 464.302, 1286.396 464.727 C 1287.645 465.971, 1291 461.036, 1291 457.954 C 1291 452.635, 1289.347 450, 1286.008 450 L 1282.967 450 1283.234 363.557 L 1283.500 277.115 1270.500 277.225 C 1245.830 277.434, 1240 277.125, 1240 275.607 C 1240 274.841, 1240.571 273.995, 1241.269 273.727 C 1242.203 273.368, 1242.396 271.336, 1242.001 266.018 C 1241.532 259.696, 1241.118 258.498, 1238.677 256.398 L 1235.888 254 1193.960 254 L 1152.032 254 1148.766 256.920 C 1145.559 259.788, 1145.500 259.995, 1145.500 268.421 L 1145.500 277.001 1139.822 277 L 1134.145 277 1134.682 271.750 C 1135.380 264.944, 1133.638 258.647, 1130.341 256.054 C 1127.802 254.056, 1126.581 254, 1085.765 254 L 1043.800 254 1040.273 257.527 L 1036.746 261.054 1037.208 269.027 L 1037.669 277 897.429 277 L 757.190 277 757.720 271.146 C 758.360 264.095, 756.803 258.777, 753.293 256.016 C 750.815 254.067, 749.326 254, 708.288 254 L 665.846 254 662.923 256.923 C 660.147 259.699, 660 260.277, 660 268.423 L 660 277 639.500 277 C 622.155 277, 619 276.774, 619 275.534 C 619 274.354, 621.100 274.012, 629.750 273.784 L 640.500 273.500 640.412 266.590 C 640.330 260.137, 640.114 259.491, 637.146 256.840 L 633.968 254 591.561 254 L 549.154 254 546.115 257.039 M 1248.655 257.829 C 1247.439 259.173, 1247 261.559, 1247 266.829 C 1247 270.943, 1247.426 274, 1248 274 C 1248.557 274, 1249 271.311, 1249 267.934 C 1249 261.078, 1250.215 258, 1252.920 258 C 1255.684 258, 1257.841 262.092, 1258.259 268.129 C 1258.630 273.496, 1258.630 273.496, 1258.815 266.973 C 1259.035 259.216, 1257.359 256, 1253.098 256 C 1251.565 256, 1249.565 256.823, 1248.655 257.829 M 530.200 258.855 C 529.209 259.484, 528.757 266.354, 528.293 287.804 L 527.685 315.930 530.408 316.965 C 536.277 319.196, 536 320.632, 536 288 L 536 258 533.750 258.015 C 532.513 258.024, 530.915 258.402, 530.200 258.855 M 549 259.500 C 549 260.810, 554.333 261, 591 261 C 627.667 261, 633 260.810, 633 259.500 C 633 258.190, 627.667 258, 591 258 C 554.333 258, 549 258.190, 549 259.500 M 666 259.500 C 666 260.810, 671.389 261, 708.500 261 C 745.611 261, 751 260.810, 751 259.500 C 751 258.190, 745.611 258, 708.500 258 C 671.389 258, 666 258.190, 666 259.500 M 1044 259.500 C 1044 260.810, 1049.389 261, 1086.500 261 C 1123.611 261, 1129 260.810, 1129 259.500 C 1129 258.190, 1123.611 258, 1086.500 258 C 1049.389 258, 1044 258.190, 1044 259.500 M 1151 259.500 C 1151 260.810, 1156.444 261, 1194 261 C 1231.556 261, 1237 260.810, 1237 259.500 C 1237 258.190, 1231.556 258, 1194 258 C 1156.444 258, 1151 258.190, 1151 259.500 M 206 261.300 C 206 262.972, 208.028 265, 209.700 265 C 211.550 265, 211.315 261.335, 209.418 260.607 C 206.990 259.675, 206 259.876, 206 261.300 M 189 262.500 C 189 263.633, 190.222 264, 194 264 C 197.778 264, 199 263.633, 199 262.500 C 199 261.367, 197.778 261, 194 261 C 190.222 261, 189 261.367, 189 262.500 M 229 262.500 C 229 263.722, 230.667 264, 238 264 C 245.333 264, 247 263.722, 247 262.500 C 247 261.278, 245.333 261, 238 261 C 230.667 261, 229 261.278, 229 262.500 M 147 264.500 C 147 265.500, 148 266, 150 266 C 152 266, 153 265.500, 153 264.500 C 153 263.500, 152 263, 150 263 C 148 263, 147 263.500, 147 264.500 M 317 266.247 C 317 269.270, 317.002 269.272, 321.640 268.636 C 324.191 268.286, 329.141 268, 332.640 268 C 337.590 268, 339 267.672, 339 266.519 C 339 264.693, 336.889 264.239, 325.750 263.669 L 317 263.221 317 266.247 M 345.750 263.728 C 343.335 263.981, 342 264.633, 342 265.560 C 342 267.080, 345.669 267.463, 349.750 266.370 C 352.074 265.747, 352.973 262.869, 350.750 263.168 C 350.063 263.261, 347.813 263.513, 345.750 263.728 M 102.746 269.070 C 100.682 270.160, 97.940 272.728, 96.654 274.776 C 93.908 279.150, 87 294.248, 87 295.876 C 87 298.368, 90.031 296.738, 93.742 292.250 C 100.087 284.577, 111 269.312, 111 268.109 C 111 266.398, 106.905 266.874, 102.746 269.070 M 300 268.500 C 300 269.500, 301 270, 303 270 C 305 270, 306 269.500, 306 268.500 C 306 267.500, 305 267, 303 267 C 301 267, 300 267.500, 300 268.500 M 283 269.500 C 283 270.548, 284.056 271, 286.500 271 C 288.944 271, 290 270.548, 290 269.500 C 290 268.452, 288.944 268, 286.500 268 C 284.056 268, 283 268.452, 283 269.500 M 264 270.500 C 264 271.583, 265.111 272, 268 272 C 270.889 272, 272 271.583, 272 270.500 C 272 269.417, 270.889 269, 268 269 C 265.111 269, 264 269.417, 264 270.500 M 507.667 270.667 C 505.886 272.447, 507.206 274, 510.500 274 C 513.333 274, 514 273.619, 514 272 C 514 270.471, 513.333 270, 511.167 270 C 509.608 270, 508.033 270.300, 507.667 270.667 M 365 273.500 C 365 275.500, 365.500 276, 367.500 276 C 370.295 276, 370.722 274.579, 368.571 272.429 C 366.421 270.278, 365 270.705, 365 273.500 M 211 273.500 C 211 274.325, 210.325 275, 209.500 275 C 208.675 275, 208 275.619, 208 276.375 C 208 278.395, 213.834 279.309, 215.580 277.563 C 217.431 275.712, 217.392 274, 215.500 274 C 214.675 274, 214 273.550, 214 273 C 214 272.450, 213.325 272, 212.500 272 C 211.675 272, 211 272.675, 211 273.500 M 232 274.500 C 232 276.056, 232.567 277, 233.500 277 C 234.433 277, 235 276.056, 235 274.500 C 235 272.944, 234.433 272, 233.500 272 C 232.567 272, 232 272.944, 232 274.500 M 297 273.575 C 268.762 275.389, 264 275.937, 264 277.370 C 264 278.037, 266.849 279.341, 270.331 280.269 C 276.334 281.868, 277.751 281.855, 297.604 280.013 C 323.411 277.620, 337.265 276.069, 337.823 275.511 C 338.056 275.277, 337.981 274.392, 337.655 273.543 C 336.923 271.636, 327.081 271.644, 297 273.575 M 497 274.500 C 497 277.379, 497.001 277.380, 502.134 275.842 C 507.572 274.213, 507.207 272, 501.500 272 C 497.367 272, 497 272.204, 497 274.500 M 580 275.500 C 580 276.500, 581 277, 583 277 C 585 277, 586 276.500, 586 275.500 C 586 274.500, 585 274, 583 274 C 581 274, 580 274.500, 580 275.500 M 745 275.500 C 745 276.633, 746.222 277, 750 277 C 753.778 277, 755 276.633, 755 275.500 C 755 274.367, 753.778 274, 750 274 C 746.222 274, 745 274.367, 745 275.500 M 1159 275.497 C 1159 276.500, 1159.997 277, 1162 277 C 1165.242 277, 1165.951 278.369, 1163.437 279.775 C 1160.990 281.145, 1162.588 286, 1165.486 286 C 1167.979 286, 1170.223 283.897, 1169.942 281.824 C 1169.488 278.468, 1170.114 277, 1172 277 C 1173.100 277, 1174 276.374, 1174 275.609 C 1174 274.556, 1172.184 274.192, 1166.500 274.106 C 1160.443 274.015, 1159 274.283, 1159 275.497 M 1302.298 275.769 C 1301.443 276.331, 1300.892 284.131, 1300.393 302.737 L 1299.690 328.916 1293.095 329.208 L 1286.500 329.500 1286.500 337 L 1286.500 344.500 1293.250 344.796 L 1300 345.091 1300 354.546 C 1300 362.883, 1299.793 364, 1298.250 363.999 C 1296.641 363.999, 1296.500 365.630, 1296.500 384.249 L 1296.500 404.500 1293.185 404.818 C 1291.361 404.993, 1289.213 404.592, 1288.411 403.926 C 1286.669 402.480, 1285.156 403.556, 1286.725 405.125 C 1287.844 406.244, 1294.527 405.882, 1298.908 404.464 C 1301.090 403.757, 1301.256 403.910, 1300.672 406.092 C 1300.317 407.416, 1300.021 411.967, 1300.014 416.204 L 1300 423.909 1293.250 424.204 L 1286.500 424.500 1286.208 432.250 L 1285.916 440 1292.883 440 L 1299.851 440 1300.175 466.082 C 1300.480 490.541, 1300.621 492.252, 1302.441 493.582 C 1304.673 495.213, 1309.800 495.429, 1312 493.985 C 1313.171 493.216, 1313.224 492.821, 1312.241 492.185 C 1311.239 491.537, 1311.043 469.755, 1311.281 385.435 C 1311.445 327.171, 1311.787 278.600, 1312.040 277.500 C 1312.441 275.754, 1311.927 275.467, 1308 275.239 C 1305.525 275.096, 1302.959 275.334, 1302.298 275.769 M 348.250 276.662 C 346.813 277.242, 346.539 280, 347.918 280 C 349.970 280, 352 278.703, 352 277.393 C 352 275.996, 350.585 275.720, 348.250 276.662 M 829.384 280.442 C 828.394 283.021, 829.471 285.493, 831.725 285.815 C 833.374 286.051, 834.088 285.498, 834.559 283.622 C 834.905 282.242, 834.894 280.638, 834.535 280.057 C 833.576 278.504, 830.026 278.770, 829.384 280.442 M 1247.040 280.452 C 1245.434 282.387, 1246.674 286, 1248.945 286 C 1251.475 286, 1253.289 283.485, 1252.515 281.048 C 1251.761 278.672, 1248.786 278.348, 1247.040 280.452 M 578.363 281.497 C 578.017 282.398, 578.196 283.596, 578.761 284.161 C 580.391 285.791, 583.500 284.692, 583.500 282.486 C 583.500 279.943, 579.272 279.128, 578.363 281.497 M 662 282.500 C 662 284.500, 662.500 285, 664.500 285 C 666.500 285, 667 284.500, 667 282.500 C 667 280.500, 666.500 280, 664.500 280 C 662.500 280, 662 280.500, 662 282.500 M 744.607 281.582 C 743.362 284.825, 743.970 286, 746.893 286 C 749.702 286, 751 284.552, 751 281.418 C 751 279.410, 745.385 279.554, 744.607 281.582 M 912.363 281.497 C 912.017 282.398, 912.196 283.596, 912.761 284.161 C 914.391 285.791, 917.500 284.692, 917.500 282.486 C 917.500 279.943, 913.272 279.128, 912.363 281.497 M 996.390 281.426 C 995.480 283.797, 996.767 286.191, 998.747 285.810 C 999.854 285.597, 1000.500 284.561, 1000.500 283 C 1000.500 280.149, 997.344 278.941, 996.390 281.426 M 1080 283 C 1080 285.298, 1080.452 286, 1081.933 286 C 1083.936 286, 1085.598 282.776, 1084.506 281.009 C 1084.163 280.454, 1083.009 280, 1081.941 280 C 1080.451 280, 1080 280.697, 1080 283 M 491.605 284.587 C 490.542 287.357, 490.956 293.049, 492.250 293.448 C 492.938 293.660, 494.768 294.112, 496.317 294.452 C 497.992 294.821, 499.816 296.271, 500.817 298.030 C 503.546 302.826, 505 301.793, 505 295.056 C 505 290.286, 504.555 288.626, 502.750 286.654 C 499.908 283.551, 492.528 282.182, 491.605 284.587 M 1286 283.893 C 1286 284.384, 1286.675 285.045, 1287.500 285.362 C 1289.742 286.222, 1289.550 294.593, 1287.258 295.875 C 1286.300 296.411, 1285.872 297.205, 1286.306 297.640 C 1286.741 298.074, 1287.862 297.949, 1288.798 297.362 C 1290.884 296.053, 1291.715 286.567, 1289.933 284.419 C 1288.628 282.847, 1286 282.495, 1286 283.893 M 215 287.073 C 215 289.636, 218.310 289.345, 218.812 286.739 C 219.043 285.539, 218.504 285, 217.073 285 C 215.642 285, 215 285.642, 215 287.073 M 266 286.500 C 266 287.583, 267.111 288, 270 288 C 272.889 288, 274 287.583, 274 286.500 C 274 285.417, 272.889 285, 270 285 C 267.111 285, 266 285.417, 266 286.500 M 229.500 288.403 C 227.850 289.131, 225.731 290.591, 224.791 291.647 C 216.614 300.834, 208.031 347.308, 208.011 382.500 C 207.993 414.713, 214.370 456.931, 221.414 471.234 C 225.321 479.168, 229.287 482.010, 236.398 481.974 C 241.374 481.949, 256.630 478.965, 258.875 477.577 C 260.443 476.608, 260.281 467.385, 258.612 462.533 C 257.848 460.315, 256.750 456.250, 256.171 453.500 C 255.592 450.750, 254.430 445.575, 253.588 442 C 249.408 424.242, 247.051 380.456, 249.227 361 C 249.627 357.425, 250.193 351.487, 250.485 347.803 C 251.128 339.687, 256.533 311.863, 258.411 307 C 259.154 305.075, 260.070 301.234, 260.446 298.463 C 261.355 291.757, 259.926 290.574, 248.500 288.578 C 237.673 286.687, 233.474 286.648, 229.500 288.403 M 566 384.500 L 566 480 919 480 L 1272 480 1272 384.500 L 1272 289 919 289 L 566 289 566 384.500 M 545.179 292.310 C 542.661 294.989, 541.337 304.095, 542.417 311.298 C 543.157 316.231, 546.951 321, 550.136 321 C 552.629 321, 552.524 318.301, 550 317.500 C 548.900 317.151, 548 316.251, 548 315.500 C 548 314.749, 548.900 313.849, 550 313.500 C 551.792 312.931, 552 311.987, 552 304.433 C 552 296.667, 551.842 296, 550 296 C 548.900 296, 548 295.355, 548 294.567 C 548 293.779, 548.900 292.849, 550 292.500 C 552.737 291.631, 552.524 290, 549.674 290 C 548.395 290, 546.372 291.039, 545.179 292.310 M 488 297.500 C 488 298.325, 488.505 299, 489.122 299 C 489.898 299, 489.860 299.464, 489 300.500 C 488.315 301.325, 486.910 302, 485.878 302 C 484.417 302, 484 302.739, 484 305.326 C 484 311.971, 492.438 315.488, 497.750 311.056 C 500.335 308.900, 500.686 307, 498.500 307 C 497.567 307, 497 306.056, 497 304.500 C 497 302.944, 497.567 302, 498.500 302 C 500.561 302, 500.384 299.657, 498.171 297.655 C 495.767 295.479, 488 295.361, 488 297.500 M 474 304.500 C 474 307.833, 474.389 309, 475.500 309 C 476.611 309, 477 307.833, 477 304.500 C 477 301.167, 476.611 300, 475.500 300 C 474.389 300, 474 301.167, 474 304.500 M 1286 304.883 C 1286 305.369, 1286.900 306.002, 1288 306.290 C 1289.576 306.702, 1290 307.654, 1290 310.784 C 1290 313.094, 1289.373 315.276, 1288.500 316 C 1287.675 316.685, 1287.015 317.752, 1287.033 318.372 C 1287.052 318.993, 1287.952 318.438, 1289.033 317.139 C 1292.272 313.251, 1291.168 304, 1287.465 304 C 1286.659 304, 1286 304.398, 1286 304.883 M 265 307.875 C 265 309.157, 265.946 309.939, 267.989 310.348 C 271.871 311.124, 274 310.254, 274 307.893 C 274 306.316, 273.249 306, 269.500 306 C 265.767 306, 265 306.319, 265 307.875 M 502 308.378 C 502 309.135, 501.325 310.315, 500.500 311 C 499.675 311.685, 499 313.710, 499 315.500 C 499 317.290, 499.675 319.315, 500.500 320 C 502.195 321.406, 502.519 324, 501 324 C 500.450 324, 500 323.550, 500 323 C 500 322.450, 499.325 322, 498.500 322 C 497.675 322, 497 322.540, 497 323.200 C 497 324.133, 496.733 324.133, 495.800 323.200 C 495.140 322.540, 493.565 322, 492.300 322 C 491.035 322, 490 321.550, 490 321 C 490 319.212, 486.099 319.946, 485.035 321.934 C 484.466 322.998, 484 325.665, 484 327.862 C 484 330.984, 484.574 332.307, 486.635 333.927 C 489.759 336.385, 494.681 336.613, 497.777 334.443 C 500.309 332.670, 500.743 330, 498.500 330 C 497.567 330, 497 329.056, 497 327.500 C 497 326.125, 497.450 325, 498 325 C 498.550 325, 499 325.900, 499 327 C 499 328.443, 499.667 329, 501.393 329 C 504.575 329, 505 327.518, 505 316.418 C 505 308.713, 504.727 307, 503.500 307 C 502.675 307, 502 307.620, 502 308.378 M 474 388.500 L 474 460 467.500 460 C 462.389 460, 461 460.321, 461 461.500 C 461 462.679, 462.389 463, 467.500 463 L 474 463 474 466 C 474 468, 474.500 469, 475.500 469 C 476.820 469, 477 459.889, 477 393 C 477 326.111, 476.820 317, 475.500 317 C 474.181 317, 474 325.611, 474 388.500 M 80.250 319.220 C 77.461 320.565, 77.300 323, 80 323 C 81.111 323, 82 323.667, 82 324.500 C 82 325.325, 82.675 326, 83.500 326 C 84.583 326, 85 324.889, 85 322 C 85 317.757, 84.225 317.304, 80.250 319.220 M 77 332.375 C 77 335.331, 76.719 339.156, 76.375 340.875 C 75.895 343.277, 76.101 344, 77.268 344 C 79.413 344, 80 341.835, 80 333.918 C 80 328.435, 79.689 327, 78.500 327 C 77.353 327, 77 328.264, 77 332.375 M 72 335.500 C 72 339.722, 72.348 341, 73.500 341 C 74.652 341, 75 339.722, 75 335.500 C 75 331.278, 74.652 330, 73.500 330 C 72.348 330, 72 331.278, 72 335.500 M 67 340.500 C 67 342.944, 67.452 344, 68.500 344 C 69.548 344, 70 342.944, 70 340.500 C 70 338.056, 69.548 337, 68.500 337 C 67.452 337, 67 338.056, 67 340.500 M 80.609 344.260 C 78.927 348.030, 78.669 351.827, 78.279 378.500 C 77.846 408.159, 78.478 418.604, 81.169 426.250 C 81.895 428.313, 83.054 430, 83.745 430 C 84.733 430, 85 420.435, 85 385 C 85 337.248, 84.754 334.967, 80.609 344.260 M 320.820 343.250 C 320.620 344.658, 319.697 345.615, 318.354 345.806 C 317.174 345.974, 315.374 347.033, 314.354 348.159 C 312.650 350.041, 312.475 352.651, 312.191 380.353 C 311.852 413.344, 312.195 418.195, 315.072 421.072 C 316.833 422.833, 318.557 423, 334.943 423 C 352.352 423, 352.933 422.934, 354.443 420.777 C 355.778 418.872, 356 413.724, 356 384.712 C 356 362.769, 355.627 350.172, 354.939 348.886 C 354.356 347.796, 352.781 346.487, 351.439 345.977 C 349.962 345.415, 349 344.251, 349 343.025 C 349 341.089, 348.390 341, 335.070 341 C 321.385 341, 321.133 341.040, 320.820 343.250 M 491 386.500 C 491 426.278, 491.189 432, 492.500 432 C 493.811 432, 494 426.278, 494 386.500 C 494 346.722, 493.811 341, 492.500 341 C 491.189 341, 491 346.722, 491 386.500 M 330.500 345 C 330.840 345.550, 332.415 346, 334 346 C 335.585 346, 337.160 345.550, 337.500 345 C 337.874 344.395, 336.491 344, 334 344 C 331.509 344, 330.126 344.395, 330.500 345 M 69 352.500 C 69 354.056, 69.567 355, 70.500 355 C 71.433 355, 72 354.056, 72 352.500 C 72 350.944, 71.433 350, 70.500 350 C 69.567 350, 69 350.944, 69 352.500 M 101 352.500 C 101 354.056, 101.567 355, 102.500 355 C 103.433 355, 104 354.056, 104 352.500 C 104 350.944, 103.433 350, 102.500 350 C 101.567 350, 101 350.944, 101 352.500 M 73 362.500 C 73 370.105, 73.287 372, 74.441 372 C 76.745 372, 76.960 370.814, 76.314 361.656 C 75.869 355.353, 75.336 353, 74.351 353 C 73.311 353, 73 355.186, 73 362.500 M 66.750 359.689 C 64.386 360.307, 64.151 370, 66.500 370 C 67.746 370, 68 371.944, 68 381.500 C 68 391.056, 67.746 393, 66.500 393 C 65.337 393, 65 394.320, 65 398.883 C 65 404.139, 65.240 404.831, 67.250 405.370 C 68.487 405.701, 69.838 405.979, 70.250 405.986 C 70.662 405.994, 71 403.117, 71 399.594 C 71 393.680, 71.154 393.227, 73 393.710 C 74.904 394.208, 75 393.741, 75 384 C 75 374.259, 74.904 373.792, 73 374.290 C 71.125 374.780, 71 374.320, 71 366.906 C 71 358.783, 70.896 358.606, 66.750 359.689 M 256.250 363.639 C 254.153 364.524, 254.856 366.926, 257.398 367.564 C 261.476 368.587, 264.500 367.709, 264.500 365.500 C 264.500 363.918, 263.768 363.459, 261 363.305 C 259.075 363.198, 256.938 363.348, 256.250 363.639 M 293 371 C 293 375.667, 293.333 377, 294.500 377 C 295.667 377, 296 375.667, 296 371 C 296 366.333, 295.667 365, 294.500 365 C 293.333 365, 293 366.333, 293 371 M 278 371.500 C 278 374.833, 278.389 376, 279.500 376 C 280.611 376, 281 374.833, 281 371.500 C 281 368.167, 280.611 367, 279.500 367 C 278.389 367, 278 368.167, 278 371.500 M 89 384.500 C 89 393.167, 89.262 395, 90.500 395 C 91.738 395, 92 393.167, 92 384.500 C 92 375.833, 91.738 374, 90.500 374 C 89.262 374, 89 375.833, 89 384.500 M 195 384.500 C 195 388.722, 195.348 390, 196.500 390 C 197.652 390, 198 388.722, 198 384.500 C 198 380.278, 197.652 379, 196.500 379 C 195.348 379, 195 380.278, 195 384.500 M 255 383.892 C 255 385.092, 255.945 386.020, 257.585 386.432 C 261.173 387.332, 264 386.231, 264 383.933 C 264 382.309, 263.281 382, 259.500 382 C 255.753 382, 255 382.316, 255 383.892 M 293 392 C 293 399.333, 293.278 401, 294.500 401 C 295.722 401, 296 399.333, 296 392 C 296 384.667, 295.722 383, 294.500 383 C 293.278 383, 293 384.667, 293 392 M 278 391.500 C 278 394.833, 278.389 396, 279.500 396 C 280.611 396, 281 394.833, 281 391.500 C 281 388.167, 280.611 387, 279.500 387 C 278.389 387, 278 388.167, 278 391.500 M 100 399 C 100 401.889, 100.417 403, 101.500 403 C 102.583 403, 103 401.889, 103 399 C 103 396.111, 102.583 395, 101.500 395 C 100.417 395, 100 396.111, 100 399 M 73 406.500 C 73 413.852, 73.308 416, 74.362 416 C 75.352 416, 75.914 413.668, 76.415 407.490 C 77.136 398.606, 76.834 397, 74.441 397 C 73.287 397, 73 398.895, 73 406.500 M 256.693 400.700 C 255.667 400.966, 255.022 401.888, 255.202 402.834 C 255.659 405.246, 263.764 405.780, 264.655 403.457 C 265.726 400.667, 261.914 399.347, 256.693 400.700 M 69 416 C 69 418.889, 69.417 420, 70.500 420 C 71.583 420, 72 418.889, 72 416 C 72 413.111, 71.583 412, 70.500 412 C 69.417 412, 69 413.111, 69 416 M 67 427.100 C 67 428.746, 67.540 430.006, 68.250 430.014 C 68.938 430.021, 70.513 430.299, 71.750 430.630 C 73.771 431.172, 74 430.876, 74 427.717 C 74 424.364, 73.836 424.200, 70.500 424.200 C 67.305 424.200, 67 424.452, 67 427.100 M 76.007 427.750 C 76.028 435.757, 77.366 444, 78.645 444 C 79.671 444, 80 442.078, 80 436.082 C 80 431.727, 79.727 427.452, 79.393 426.582 C 78.371 423.919, 75.999 424.737, 76.007 427.750 M 72 436.500 C 72 439.833, 72.389 441, 73.500 441 C 74.611 441, 75 439.833, 75 436.500 C 75 433.167, 74.611 432, 73.500 432 C 72.389 432, 72 433.167, 72 436.500 M 82 439.500 C 82 445.500, 81.700 447, 80.500 447 C 79.675 447, 79 446.550, 79 446 C 79 445.450, 78.100 445, 77 445 C 75.889 445, 75 445.667, 75 446.500 C 75 447.325, 75.707 448, 76.571 448 C 77.436 448, 78.818 448.675, 79.643 449.500 C 80.468 450.325, 82.011 451, 83.071 451 C 84.841 451, 85 450.216, 85 441.500 C 85 433.722, 84.728 432, 83.500 432 C 82.300 432, 82 433.500, 82 439.500 M 488.036 441.602 C 484.574 446.732, 484.709 449.091, 488.566 450.848 C 491.811 452.326, 493.950 452.302, 497.293 450.750 C 500.186 449.406, 500.961 447, 498.500 447 C 497.466 447, 497 445.962, 497 443.655 C 497 440.393, 494.574 437, 492.242 437 C 491.637 437, 489.744 439.071, 488.036 441.602 M 505.750 445.875 C 505.337 447.731, 505 452.621, 505 456.742 C 505 463.741, 504.869 464.199, 503 463.710 C 501.426 463.299, 501 463.680, 501 465.500 C 501 467.320, 501.426 467.701, 503 467.290 C 504.865 466.802, 505 467.259, 505 474.069 C 505 480.190, 504.648 481.745, 502.826 483.686 C 501.003 485.626, 500.918 486, 502.303 486 C 503.211 486, 504.649 484.939, 505.499 483.642 C 506.784 481.680, 506.998 478.022, 506.772 461.892 C 506.609 450.282, 506.199 443.854, 505.750 445.875 M 528.475 460.315 C 528.120 462.688, 527.979 476.076, 528.164 490.065 L 528.500 515.500 532.250 515.810 L 536 516.121 536 486.060 L 536 456 532.561 456 C 529.274 456, 529.094 456.190, 528.475 460.315 M 545.164 458.519 C 540.997 463.816, 541.244 479.813, 545.564 484.475 C 548.435 487.572, 552 487.863, 552 485 C 552 483.667, 551.333 483, 550 483 C 548.889 483, 548 482.333, 548 481.500 C 548 480.667, 548.889 480, 550 480 C 551.852 480, 552 479.333, 552 471 C 552 462.667, 551.852 462, 550 462 C 548.889 462, 548 461.333, 548 460.500 C 548 459.667, 548.889 459, 550 459 C 551.111 459, 552 458.333, 552 457.500 C 552 455.031, 547.364 455.722, 545.164 458.519 M 265.336 459.567 C 264.377 462.067, 266.490 463.318, 270.425 462.580 C 273.077 462.083, 274 461.405, 274 459.955 C 274 458.338, 273.302 458, 269.969 458 C 267.231 458, 265.744 458.503, 265.336 459.567 M 393 461.500 C 393 462.759, 395.167 463, 406.500 463 C 417.833 463, 420 462.759, 420 461.500 C 420 460.241, 417.833 460, 406.500 460 C 395.167 460, 393 460.241, 393 461.500 M 421 461.500 C 421 462.500, 422 463, 424 463 C 426 463, 427 462.500, 427 461.500 C 427 460.500, 426 460, 424 460 C 422 460, 421 460.500, 421 461.500 M 430 461.500 C 430 462.500, 431 463, 433 463 C 435 463, 436 462.500, 436 461.500 C 436 460.500, 435 460, 433 460 C 431 460, 430 460.500, 430 461.500 M 442 461.500 C 442 462.633, 443.222 463, 447 463 C 450.778 463, 452 462.633, 452 461.500 C 452 460.367, 450.778 460, 447 460 C 443.222 460, 442 460.367, 442 461.500 M 453 461.500 C 453 462.500, 454 463, 456 463 C 458 463, 459 462.500, 459 461.500 C 459 460.500, 458 460, 456 460 C 454 460, 453 460.500, 453 461.500 M 557.191 471.647 C 557.361 474.316, 557.903 476.389, 558.396 476.253 C 559.854 475.853, 559.663 467.721, 558.185 467.228 C 557.207 466.902, 556.959 468.006, 557.191 471.647 M 86.005 472.250 C 86.007 472.938, 88.820 479.103, 92.255 485.952 C 97.536 496.481, 99.040 498.672, 102 500.143 C 107.421 502.837, 111 503.489, 111 501.783 C 111 500.504, 99.991 485.093, 91.761 474.852 C 88.703 471.046, 85.995 469.823, 86.005 472.250 M 1286 471.498 C 1286 471.853, 1286.712 472.855, 1287.582 473.725 C 1288.739 474.882, 1288.986 476.276, 1288.499 478.904 C 1288.133 480.882, 1287.420 482.650, 1286.916 482.833 C 1285.421 483.377, 1285.874 485, 1287.521 485 C 1291.590 485, 1291.804 471.971, 1287.748 471.190 C 1286.787 471.005, 1286 471.143, 1286 471.498 M 267 482.500 C 267 483.583, 268.111 484, 271 484 C 273.889 484, 275 483.583, 275 482.500 C 275 481.417, 273.889 481, 271 481 C 268.111 481, 267 481.417, 267 482.500 M 297 483.893 C 297 485.763, 298.824 487, 301.582 487 C 303.543 487, 303.359 484.993, 301.250 483.392 C 298.748 481.493, 297 481.699, 297 483.893 M 829.309 484.636 C 828.542 486.636, 830.142 489.387, 832.321 489.816 C 834.058 490.158, 835.687 485.920, 834.535 484.057 C 833.524 482.420, 830.010 482.810, 829.309 484.636 M 1161.250 484.229 C 1157.658 485.401, 1156.557 488.611, 1160.061 487.694 C 1161.323 487.364, 1162.334 487.707, 1162.668 488.578 C 1163.401 490.488, 1167.435 490.386, 1169.070 488.416 C 1170.020 487.271, 1170.095 486.370, 1169.340 485.166 C 1168.061 483.125, 1165.530 482.832, 1161.250 484.229 M 579.180 486.250 C 579.390 487.727, 580.187 488.500, 581.500 488.500 C 582.813 488.500, 583.610 487.727, 583.820 486.250 C 584.082 484.404, 583.665 484, 581.500 484 C 579.335 484, 578.918 484.404, 579.180 486.250 M 662 486.500 C 662 488.782, 662.366 489.091, 664.750 488.816 C 666.728 488.589, 667.500 487.938, 667.500 486.500 C 667.500 485.062, 666.728 484.411, 664.750 484.184 C 662.366 483.909, 662 484.218, 662 486.500 M 745.494 485.009 C 744.252 487.020, 746.087 490, 748.567 490 C 750.604 490, 751 489.511, 751 487 C 751 484.486, 750.605 484, 748.559 484 C 747.216 484, 745.837 484.454, 745.494 485.009 M 912.336 485.567 C 912.005 486.429, 912.196 487.596, 912.761 488.161 C 914.422 489.822, 917.474 488.663, 917.820 486.240 C 918.080 484.412, 917.660 484, 915.538 484 C 914.099 484, 912.669 484.700, 912.336 485.567 M 996.180 486.250 C 996.390 487.727, 997.187 488.500, 998.500 488.500 C 999.813 488.500, 1000.610 487.727, 1000.820 486.250 C 1001.082 484.404, 1000.665 484, 998.500 484 C 996.335 484, 995.918 484.404, 996.180 486.250 M 1079.363 485.497 C 1079.017 486.398, 1079.196 487.596, 1079.761 488.161 C 1081.391 489.791, 1084.500 488.692, 1084.500 486.486 C 1084.500 483.943, 1080.272 483.128, 1079.363 485.497 M 482 486.433 C 482 487.894, 485.704 489.629, 486.699 488.634 C 487 488.333, 486.981 487.392, 486.655 486.543 C 485.909 484.598, 482 484.505, 482 486.433 M 1247.187 486.750 C 1247.370 487.712, 1248.528 488.644, 1249.760 488.820 C 1251.461 489.062, 1252 488.641, 1252 487.070 C 1252 485.513, 1251.362 485, 1249.427 485 C 1247.515 485, 1246.939 485.450, 1247.187 486.750 M 268.250 488.761 C 262.771 490.356, 261.345 492.592, 265.250 493.465 C 268.610 494.215, 295.923 495.861, 317.724 496.626 C 335.242 497.242, 337.005 497.151, 337.597 495.608 C 337.955 494.676, 338.061 493.728, 337.834 493.501 C 337.320 492.987, 278.582 486.957, 275.643 487.116 C 274.464 487.180, 271.137 487.921, 268.250 488.761 M 348 492.500 C 348 494.056, 348.567 495, 349.500 495 C 350.433 495, 351 494.056, 351 492.500 C 351 490.944, 350.433 490, 349.500 490 C 348.567 490, 348 490.944, 348 492.500 M 211.250 491.662 C 209.490 492.372, 209.694 494.669, 211.582 495.393 C 214.771 496.617, 220 496.062, 220 494.500 C 220 493.567, 219.056 493, 217.500 493 C 216.125 493, 215 492.550, 215 492 C 215 490.953, 213.372 490.806, 211.250 491.662 M 702.750 491.761 L 663 492.023 663 494.511 L 663 497 708.433 497 C 753.537 497, 753.870 496.985, 754.524 494.925 C 754.886 493.783, 755.029 492.721, 754.841 492.565 C 753.876 491.759, 738.691 491.525, 702.750 491.761 M 1042 494.500 L 1042 497 1086.500 497 L 1131 497 1131 494.500 L 1131 492 1086.500 492 L 1042 492 1042 494.500 M 497 495.500 C 497 497.740, 497.360 498.139, 498.999 497.711 C 500.098 497.423, 501.250 497.596, 501.558 498.094 C 502.186 499.110, 510.973 499.331, 513.418 498.393 C 514.288 498.059, 515 497.212, 515 496.510 C 515 495.669, 512.865 495.045, 508.750 494.683 C 505.313 494.380, 501.262 493.825, 499.750 493.450 C 497.254 492.830, 497 493.019, 497 495.500 M 467 495.500 C 467 496.633, 468.222 497, 472 497 C 475.778 497, 477 496.633, 477 495.500 C 477 494.367, 475.778 494, 472 494 C 468.222 494, 467 494.367, 467 495.500 M 1247 505.378 C 1247 512.488, 1247.394 516.065, 1248.250 516.740 C 1250.605 518.594, 1254.630 518.991, 1256.588 517.560 C 1258.241 516.353, 1258.517 514.764, 1258.626 505.832 C 1258.695 500.149, 1258.554 497.525, 1258.313 500 C 1258.071 502.475, 1257.452 504.928, 1256.937 505.450 C 1256.422 505.972, 1256 508.589, 1256 511.263 L 1256 516.127 1252.750 515.813 L 1249.500 515.500 1249.215 505.250 C 1248.839 491.713, 1247 491.818, 1247 505.378 M 346.630 499.250 C 345.622 503.012, 345.923 505, 347.500 505 C 348.325 505, 349.006 504.212, 349.014 503.250 C 349.021 502.288, 349.299 500.488, 349.630 499.250 C 350.059 497.649, 349.801 497, 348.733 497 C 347.908 497, 346.962 498.012, 346.630 499.250 M 273 499.500 C 273 500.583, 274.111 501, 277 501 C 279.889 501, 281 500.583, 281 499.500 C 281 498.417, 279.889 498, 277 498 C 274.111 498, 273 498.417, 273 499.500 M 316 503.500 C 316 505.920, 316.215 506, 322.750 505.993 C 342.569 505.972, 350.578 502.837, 333.846 501.650 C 328.812 501.292, 322.737 501, 320.346 501 C 316.377 501, 316 501.217, 316 503.500 M 133 503.500 C 133 504.500, 134 505, 136 505 C 138 505, 139 504.500, 139 503.500 C 139 502.500, 138 502, 136 502 C 134 502, 133 502.500, 133 503.500 M 209 505 C 209 505.550, 208.325 506, 207.500 506 C 206.667 506, 206 506.889, 206 508 C 206 510.292, 207.710 510.536, 210.250 508.608 C 212.392 506.982, 212.554 504, 210.500 504 C 209.675 504, 209 504.450, 209 505 M 171 506.500 C 171 507.433, 171.944 508, 173.500 508 C 175.056 508, 176 507.433, 176 506.500 C 176 505.567, 175.056 505, 173.500 505 C 171.944 505, 171 505.567, 171 506.500 M 282 506.500 C 282 507.548, 283.056 508, 285.500 508 C 287.944 508, 289 507.548, 289 506.500 C 289 505.452, 287.944 505, 285.500 505 C 283.056 505, 282 505.452, 282 506.500 M 548.190 515.750 C 548.503 517.378, 551.425 517.519, 590.014 517.778 C 612.831 517.931, 632.513 517.810, 633.750 517.509 C 634.987 517.208, 636 516.295, 636 515.481 C 636 514.195, 630.184 514, 591.927 514 C 550.490 514, 547.874 514.105, 548.190 515.750 M 665 515.375 C 665 516.131, 666.406 517.031, 668.125 517.375 C 672.148 518.180, 749.325 518.196, 751.418 517.393 C 752.288 517.059, 753 516.159, 753 515.393 C 753 514.223, 745.942 514, 709 514 C 672.333 514, 665 514.229, 665 515.375 M 1042 515.383 C 1042 516.144, 1043.013 517.038, 1044.250 517.370 C 1047.200 518.160, 1125.362 518.182, 1127.418 517.393 C 1128.288 517.059, 1129 516.159, 1129 515.393 C 1129 514.224, 1122.015 514, 1085.500 514 C 1049.130 514, 1042 514.227, 1042 515.383 M 1151 515.393 C 1151 516.159, 1151.712 517.059, 1152.582 517.393 C 1154.647 518.186, 1233.353 518.186, 1235.418 517.393 C 1236.288 517.059, 1237 516.159, 1237 515.393 C 1237 514.224, 1230.088 514, 1194 514 C 1157.912 514, 1151 514.224, 1151 515.393" stroke="none" fill="#0c2133" fill-rule="evenodd"/><path d="M 204.501 257.641 L 205.111 260.782 188.306 261.408 C 155.680 262.624, 116.834 265.832, 115.223 267.444 C 113.663 269.004, 117.117 269.045, 130.175 267.623 C 148.700 265.606, 170.381 264.176, 190.788 263.625 C 206.614 263.198, 207.115 263.247, 208.464 265.343 C 209.921 267.607, 211.616 275, 210.677 275 C 208.045 275, 172.055 283.008, 159 286.498 C 128.934 294.536, 85 310.832, 85 313.945 C 85 315.355, 84.143 315.640, 97.045 309.932 C 114.336 302.283, 143.931 292.544, 167.981 286.589 C 191.379 280.796, 209.012 277.407, 211.263 278.271 C 212.047 278.572, 213.258 280.849, 213.953 283.333 C 215.179 287.713, 215.126 287.961, 212.172 291.674 C 204.215 301.671, 197.785 331.491, 196.057 366.405 C 193.683 414.376, 201.614 466.031, 213.310 478.777 C 215.240 480.880, 215.304 481.417, 214.142 485.777 C 213.449 488.375, 212.482 490.905, 211.991 491.400 C 209.819 493.593, 157.920 481.021, 128 471.053 C 116.725 467.297, 102.788 462.148, 97.028 459.612 C 91.269 457.075, 85.982 455, 85.278 455 C 78.087 455, 103.302 465.628, 134 475.536 C 151.499 481.184, 171.190 486.332, 193 490.959 C 212.455 495.087, 212.448 495.082, 209.944 502.671 L 208.744 506.307 186.122 505.685 C 173.680 505.342, 158.550 504.561, 152.500 503.949 C 124.811 501.146, 115.468 500.327, 115.067 500.667 C 113.569 501.933, 118.418 502.974, 132.500 504.409 C 156.476 506.852, 174.871 507.981, 190.829 507.991 L 205.159 508 204.500 511 C 203.651 514.865, 205.017 514.821, 207.924 510.889 L 210.224 507.778 222.362 508.037 C 240.117 508.417, 247 508.127, 247 507 C 247 506.447, 244.375 506, 241.125 506 C 235.345 506, 235.240 505.949, 234.625 502.875 C 233.657 498.036, 233.690 498, 239.059 498 C 242.177 498, 243.881 497.616, 243.500 497 C 243.160 496.450, 241.109 496, 238.941 496 C 235.429 496, 235 495.734, 235 493.559 C 235 492.216, 235.431 490.852, 235.957 490.527 C 236.483 490.201, 243.571 488.605, 251.707 486.980 C 268.301 483.664, 281 483.023, 281 485.500 C 281 486.475, 280.038 486.992, 278.250 486.978 C 274.913 486.951, 259 491.198, 259 492.115 C 259 493.457, 284.510 495.437, 316.723 496.597 C 331.601 497.133, 336.292 497.003, 337.473 496.022 C 339.913 493.997, 339.262 493, 335.500 493 C 332.923 493, 332 492.568, 332 491.361 C 332 489.970, 332.795 489.817, 337.250 490.352 C 340.137 490.699, 343.738 490.987, 345.250 490.991 C 348.414 491.001, 348.753 492.756, 346.829 499.176 C 345.791 502.640, 345.365 503.027, 343.079 502.579 C 341.661 502.302, 332.850 501.602, 323.500 501.024 C 314.150 500.446, 299.308 499.529, 290.517 498.987 C 270.860 497.773, 261 497.730, 261 498.857 C 261 499.793, 271.405 500.585, 297.250 501.618 C 310.356 502.141, 314 502.582, 314 503.643 C 314 504.701, 311.632 505.001, 303.250 505.003 C 283.979 505.009, 261 506.266, 261 507.314 C 261 508.413, 291.133 507.752, 325.743 505.894 C 343.556 504.937, 346.547 504.998, 350.671 506.403 C 360.031 509.593, 363.641 508.218, 366.343 500.434 L 367.708 496.500 431.264 496.609 C 466.220 496.668, 495.649 497.064, 496.660 497.487 C 499.286 498.586, 509.754 499.279, 512.669 498.547 C 514.274 498.144, 515.020 497.343, 514.809 496.248 C 514.551 494.909, 513.538 494.626, 509.816 494.855 C 506.220 495.076, 503.271 494.317, 496.982 491.552 C 486.334 486.871, 482.652 483.949, 479.549 477.722 L 477 472.607 477 384.500 L 477 296.393 479.608 291.159 C 481.155 288.055, 483.691 284.923, 485.840 283.463 C 491.385 279.695, 492.123 280.098, 491.373 286.484 C 490.695 292.254, 491.922 295.351, 494.495 294.364 C 496.520 293.587, 499.797 295.708, 501.419 298.844 C 504.067 303.963, 501.498 312.450, 496.750 314.267 C 495.788 314.636, 495 315.640, 495 316.500 C 495 317.360, 495.788 318.306, 496.750 318.604 C 500.836 319.866, 501.500 320.763, 501.500 325.021 C 501.500 329.678, 503.369 331.488, 504.359 327.791 C 504.697 326.531, 504.979 317.348, 504.986 307.385 C 504.999 290.561, 504.852 289.082, 502.927 286.635 C 501.593 284.939, 499.883 284, 498.127 284 C 495.241 284, 493 282.414, 493 280.372 C 493 278.773, 503.106 274.955, 509.500 274.139 C 512.994 273.692, 514.500 273.048, 514.500 272 C 514.500 270.119, 509.414 269.412, 507.472 271.023 C 506.532 271.804, 502.434 272.083, 495.096 271.865 C 489.063 271.687, 483.798 271.869, 483.396 272.270 C 482.995 272.672, 456.947 273, 425.512 273 L 368.357 273 366.178 268.180 C 364.980 265.529, 364 262.618, 364 261.711 C 364 260.380, 363.165 260.127, 359.674 260.402 C 357.295 260.590, 354.340 261.283, 353.108 261.942 C 348.544 264.385, 340.498 264.745, 320.080 263.420 C 295.224 261.806, 261 261.563, 261 263 C 261 263.636, 268.833 264, 282.500 264 C 300.944 264, 304 264.213, 304 265.500 C 304 266.325, 303.887 267.038, 303.750 267.085 C 303.613 267.131, 294.176 267.718, 282.780 268.388 C 263.516 269.521, 259.747 270.080, 261.251 271.584 C 261.788 272.122, 323.895 268.804, 339.093 267.426 L 345.686 266.829 346.925 269.819 C 347.607 271.464, 348.015 273.865, 347.832 275.155 C 347.552 277.135, 346.839 277.548, 343.250 277.807 C 339.665 278.067, 339 277.824, 339 276.257 C 339 271.391, 336.326 271.201, 300 273.487 C 267.945 275.505, 261 276.132, 261 277.010 C 261 277.423, 265.050 278.818, 270 280.110 C 275.382 281.514, 279 282.969, 279 283.729 C 279 285.855, 265.516 285.249, 251.888 282.511 C 234.005 278.918, 235 279.267, 235 276.594 C 235 274.555, 235.624 274.134, 239.500 273.552 C 241.975 273.181, 244 272.404, 244 271.825 C 244 271.145, 242.410 271.011, 239.500 271.448 L 235 272.123 235 268.109 L 235 264.095 241.250 263.798 C 244.688 263.634, 247.500 263.050, 247.500 262.500 C 247.500 261.877, 240.328 261.403, 228.500 261.243 L 209.500 260.985 206.695 257.743 L 203.890 254.500 204.501 257.641 M 530.200 258.855 C 529.209 259.484, 528.757 266.354, 528.293 287.804 L 527.685 315.930 530.408 316.965 C 536.277 319.196, 536 320.632, 536 288 L 536 258 533.750 258.015 C 532.513 258.024, 530.915 258.402, 530.200 258.855 M 548.250 258.662 C 543.505 260.577, 551.239 261, 591 261 C 631.037 261, 638.550 260.576, 633.418 258.607 C 631.529 257.882, 550.052 257.935, 548.250 258.662 M 665.667 258.667 C 665.300 259.033, 665 259.708, 665 260.167 C 665 260.625, 684.800 261, 709 261 C 749.037 261, 756.550 260.576, 751.418 258.607 C 749.253 257.776, 666.500 257.834, 665.667 258.667 M 1042.750 258.684 C 1041.787 258.938, 1041 259.564, 1041 260.073 C 1041 260.628, 1058.880 261, 1085.583 261 C 1120.805 261, 1130.079 260.738, 1129.750 259.750 C 1129.427 258.779, 1119.861 258.469, 1086.917 258.361 C 1063.588 258.284, 1043.713 258.429, 1042.750 258.684 M 1150.250 258.657 C 1145.530 260.582, 1153.254 261, 1193.583 261 C 1228.805 261, 1238.079 260.738, 1237.750 259.750 C 1237.427 258.780, 1227.735 258.461, 1194.417 258.323 C 1170.813 258.226, 1150.938 258.376, 1150.250 258.657 M 1250.035 259.934 C 1249.466 260.998, 1249 264.590, 1249 267.915 C 1249 273.649, 1248.860 273.997, 1246.303 274.639 C 1244.719 275.036, 1243.462 274.886, 1243.258 274.273 C 1243.037 273.611, 1241.640 273.517, 1239.429 274.016 C 1235.089 274.995, 641 275.189, 641 274.211 C 641 273.820, 634.363 273.839, 626.250 274.253 C 618.138 274.667, 598.112 274.826, 581.750 274.606 L 552 274.207 552 276.603 C 552 278.614, 551.503 279, 548.917 279 C 546.892 279, 545.978 279.429, 546.254 280.250 C 546.497 280.971, 547.858 281.357, 549.473 281.161 L 552.272 280.821 551.762 286.121 C 551.384 290.056, 550.706 291.783, 549.127 292.832 C 546.288 294.717, 546.439 296, 549.500 296 C 551.970 296, 552 296.101, 552 304.481 C 552 312.693, 551.921 312.982, 549.500 313.589 C 546.295 314.394, 546.319 315.733, 549.567 317.212 C 551.319 318.011, 551.983 318.956, 551.660 320.191 C 551.400 321.186, 551.595 322, 552.094 322 C 552.592 322, 553 323.800, 553 326 C 553 328.200, 552.663 330, 552.250 329.999 C 551.837 329.999, 551.726 358.011, 552.002 392.249 C 552.278 426.487, 552.213 454.634, 551.858 454.798 C 551.503 454.962, 551.432 455.937, 551.701 456.966 C 552.059 458.332, 551.579 458.925, 549.924 459.168 C 546.652 459.647, 546.231 462, 549.417 462 L 552 462 552 471 L 552 480 549.417 480 C 546.349 480, 546.596 482.343, 549.712 482.804 C 551.470 483.065, 551.757 483.802, 551.695 487.898 C 551.638 491.674, 551.200 492.880, 549.626 493.594 C 545.896 495.286, 546.546 497, 550.917 497 C 553.880 497, 555 496.588, 555 495.500 C 555 494.417, 556.111 494, 559 494 L 563 494 563 481 C 563 470.111, 563.244 468, 564.500 468 C 565.667 468, 566 469.333, 566 474 L 566 480 919 480 L 1272 480 1272 384.500 L 1272 289 1177.383 289 L 1082.767 289 1083.471 286.750 C 1084.802 282.499, 1084.552 280.573, 1082.620 280.183 C 1081.586 279.974, 1080.403 280.347, 1079.992 281.012 C 1079.089 282.474, 1079.883 286, 1081.117 286 C 1081.602 286, 1082 286.675, 1082 287.500 C 1082 288.829, 1052.667 289, 824 289 L 566 289 566 302.617 L 566 316.233 563.750 315.477 C 562.513 315.061, 560.038 314.752, 558.250 314.789 L 555 314.858 555 308.929 C 555 305.643, 555.446 303, 556 303 C 556.550 303, 557 302.356, 557 301.570 C 557 300.783, 557.918 299.995, 559.040 299.820 C 560.161 299.644, 561.061 299.163, 561.040 298.750 C 561.018 298.337, 561 296.875, 561 295.500 C 561 293.990, 560.429 293, 559.559 293 C 557.402 293, 556.829 291.427, 557.563 287.517 C 557.941 285.499, 558.815 284, 559.611 284 C 562.201 284, 561.017 282.163, 558 281.500 C 555.617 280.977, 555 280.313, 555 278.274 L 555 275.707 562.651 276.353 C 566.859 276.709, 591.164 277, 616.663 277 L 663.024 277 662.359 281.156 L 661.695 285.311 665.597 284.667 C 667.744 284.312, 670.063 284.017, 670.750 284.011 C 671.438 284.005, 672 283.550, 672 283 C 672 282.450, 670.875 282, 669.500 282 C 668.125 282, 667 281.550, 667 281 C 667 280.450, 666.325 280, 665.500 280 C 664.675 280, 664 279.342, 664 278.538 C 664 277.279, 669.779 277.068, 705.500 277.022 C 740.677 276.977, 747 277.185, 747 278.387 C 747 279.166, 745.650 280.275, 744 280.850 C 740.876 281.939, 739.894 284, 742.500 284 C 743.325 284, 744 284.450, 744 285 C 744 285.550, 745.320 286, 746.933 286 C 750.259 286, 751.480 283.762, 750.432 279.585 L 749.783 277 789.892 277 C 831.488 277, 831.547 277.006, 829.054 280.946 C 827.791 282.943, 829.594 286, 832.035 286 C 833.116 286, 834 285.550, 834 285 C 834 284.450, 835.125 284, 836.500 284 C 837.875 284, 839 283.550, 839 283 C 839 282.450, 838.148 282, 837.107 282 C 835.371 282, 834 280.197, 834 277.915 C 834 277.357, 899.077 276.999, 999 277.006 C 1144.558 277.016, 1164 277.193, 1164 278.509 C 1164 279.329, 1163.550 280, 1163 280 C 1162.450 280, 1162 281.350, 1162 283 C 1162 285.464, 1162.411 286, 1164.301 286 C 1166.935 286, 1171.981 283.868, 1171.992 282.750 C 1171.996 282.337, 1171.550 282, 1171 282 C 1170.450 282, 1170 280.875, 1170 279.500 L 1170 277 1209.073 277 C 1245.746 277, 1248.126 277.108, 1247.815 278.750 C 1247.615 279.805, 1246.395 280.626, 1244.741 280.816 C 1241.247 281.220, 1241.036 284, 1244.500 284 C 1245.875 284, 1247 284.450, 1247 285 C 1247 286.476, 1250.577 286.215, 1251.881 284.643 C 1252.501 283.897, 1252.747 281.984, 1252.429 280.393 L 1251.850 277.500 1267.425 277.426 L 1283 277.353 1283 384.676 L 1283 492 1269.082 492 C 1261.427 492, 1254.452 491.727, 1253.582 491.393 C 1251.053 490.423, 1251.708 488, 1254.500 488 C 1256.103 488, 1257 487.438, 1257 486.433 C 1257 485.357, 1256.414 485.051, 1255.132 485.458 C 1254.105 485.784, 1252.096 485.607, 1250.667 485.064 C 1248.958 484.414, 1247.862 484.414, 1247.460 485.064 C 1247.124 485.608, 1245.871 485.928, 1244.675 485.776 C 1243.479 485.624, 1242.500 485.950, 1242.500 486.500 C 1242.500 487.050, 1243.520 487.369, 1244.766 487.210 C 1247.431 486.868, 1249.012 489.746, 1246.896 491.086 C 1244.880 492.362, 1168 492.266, 1168 490.986 C 1168 490.429, 1168.554 489.086, 1169.230 488.003 C 1170.245 486.379, 1170.168 485.740, 1168.796 484.368 C 1167.332 482.903, 1166.583 482.857, 1162.566 483.982 C 1157.650 485.358, 1156.292 488, 1160.500 488 C 1162.329 488, 1163 488.534, 1163 489.989 C 1163 491.963, 1162.096 491.978, 1039.500 491.992 C 932.500 492.005, 916 491.814, 916 490.562 C 916 489.768, 916.450 488.840, 917 488.500 C 918.579 487.524, 918.165 484.277, 916.373 483.590 C 915.479 483.246, 914.241 483.380, 913.623 483.887 C 913.005 484.394, 911.375 484.964, 910 485.154 C 906.604 485.624, 906.940 487.383, 910.544 488.008 C 912.269 488.306, 913.614 489.233, 913.811 490.258 C 914.126 491.891, 911.633 492, 874.073 492 C 834.667 492, 834 491.967, 834 490 C 834 488.533, 834.667 488, 836.500 488 C 838.056 488, 839 487.433, 839 486.500 C 839 485.675, 838.127 485, 837.059 485 C 835.991 485, 834.840 484.550, 834.500 484 C 833.469 482.332, 830.135 482.880, 829.056 484.895 C 828.303 486.302, 828.423 487.106, 829.521 488.017 C 830.334 488.693, 831 489.870, 831 490.634 C 831 491.800, 824.633 491.981, 791.263 491.761 C 755.038 491.523, 751.499 491.352, 751.205 489.827 C 750.994 488.733, 751.654 488.041, 753.113 487.827 C 756.191 487.376, 756.791 485.004, 753.833 484.985 C 752.550 484.976, 750.829 484.545, 750.010 484.027 C 749.004 483.391, 747.777 483.571, 746.236 484.581 C 744.980 485.404, 743.223 485.947, 742.330 485.788 C 741.438 485.630, 740.511 486.063, 740.270 486.750 C 739.982 487.574, 740.884 488, 742.917 488 C 747.954 488, 746.738 490.627, 741.360 491.364 C 735.469 492.172, 672.261 492.177, 669.250 491.370 C 666.171 490.544, 666.359 488, 669.500 488 C 670.965 488, 672 487.426, 672 486.614 C 672 484.776, 663.031 483.332, 661.998 485.004 C 661.600 485.647, 660.382 486.021, 659.291 485.836 C 658.200 485.651, 657.350 485.950, 657.403 486.500 C 657.456 487.050, 658.368 487.379, 659.429 487.230 C 661.395 486.955, 662.957 488.501, 662.985 490.750 C 662.997 491.733, 652.642 492, 614.500 492 L 566 492 566 494.500 L 566 497 601.878 497 C 633.389 497, 637.915 496.807, 639.069 495.417 C 640.156 494.108, 642.285 493.891, 651.360 494.167 C 659.004 494.399, 662.462 494.879, 662.751 495.750 C 663.358 497.576, 753.641 497.576, 754.250 495.750 C 754.580 494.759, 784.465 494.449, 898.333 494.253 C 1025.337 494.035, 1042 494.180, 1042 495.503 C 1042 496.810, 1047.646 497, 1086.417 497 C 1121.061 497, 1130.925 496.725, 1131.250 495.750 C 1131.539 494.883, 1134.222 494.500, 1140 494.500 C 1145.778 494.500, 1148.461 494.883, 1148.750 495.750 C 1149.075 496.725, 1159.114 497, 1194.461 497 C 1233.502 497, 1239.927 496.793, 1241 495.500 C 1242.333 493.894, 1245.728 493.540, 1247.711 494.800 C 1248.492 495.297, 1249.025 499.109, 1249.211 505.535 L 1249.500 515.500 1252.750 515.813 L 1256 516.127 1256 511.122 C 1256 508.370, 1256.450 505.840, 1257 505.500 C 1257.550 505.160, 1258 503.145, 1258 501.023 C 1258 494.742, 1258.638 494, 1264.037 494 C 1268.278 494, 1268.900 494.272, 1269.180 496.250 C 1269.415 497.898, 1270.169 498.500, 1272 498.500 C 1273.831 498.500, 1274.585 497.898, 1274.820 496.250 C 1275.102 494.264, 1275.718 494, 1280.070 494 L 1285 494 1285 490 C 1285 487.800, 1285.430 486, 1285.955 486 C 1286.480 486, 1287.206 484.420, 1287.568 482.489 C 1287.930 480.558, 1288.626 478.731, 1289.113 478.430 C 1290.470 477.591, 1290.191 476.582, 1287.932 474.157 C 1286.795 472.937, 1285.618 470.419, 1285.316 468.563 C 1284.866 465.787, 1285.233 464.784, 1287.384 462.914 C 1290.660 460.065, 1291.023 454.618, 1288.043 453.023 C 1285.364 451.589, 1284.835 447.365, 1285.756 434.750 C 1286.188 428.837, 1286.194 424, 1285.770 424 C 1285.347 424, 1285 419.959, 1285 415.019 C 1285 405.049, 1284.719 405.409, 1293 404.770 L 1296.500 404.500 1296.772 385.003 C 1297.081 362.896, 1297.117 363, 1289.309 363 L 1285 363 1285 354 C 1285 349.050, 1285.338 345, 1285.750 345 C 1286.162 345, 1286.500 341.400, 1286.500 337 C 1286.500 332.600, 1286.162 329, 1285.750 329 C 1285.338 329, 1285 326.955, 1285 324.456 C 1285 320.995, 1285.596 319.270, 1287.500 317.217 C 1290.412 314.077, 1291.033 307.334, 1288.500 306.362 C 1287.675 306.045, 1287 305.159, 1287 304.393 C 1287 303.627, 1286.494 303, 1285.875 303 C 1284.262 303, 1285.672 296.763, 1287.519 295.729 C 1289.827 294.438, 1289.469 286.846, 1287 284.732 C 1285.617 283.548, 1285 281.782, 1285 279.010 L 1285 275 1279.500 275 C 1274.300 275, 1274 274.864, 1274 272.500 C 1274 270.500, 1273.500 270, 1271.500 270 C 1269.500 270, 1269 270.500, 1269 272.500 C 1269 274.826, 1268.660 275, 1264.107 275 C 1258.543 275, 1258 274.323, 1258 267.383 C 1258 259.890, 1252.708 254.940, 1250.035 259.934 M 211 263.822 C 211 264.274, 211.717 266.749, 212.594 269.322 C 214.408 274.646, 214.883 274.776, 225.668 272.897 L 232 271.795 232 268.014 C 232 264.939, 231.580 264.121, 229.750 263.630 C 226.362 262.722, 211 262.879, 211 263.822 M 353.500 264.713 C 351.300 265.598, 349.325 266.462, 349.112 266.633 C 348.899 266.803, 349.295 268.981, 349.992 271.471 C 351.150 275.606, 351.531 276, 354.380 275.994 C 358.922 275.986, 365.003 274.097, 364.978 272.703 C 364.966 272.041, 364.088 269.587, 363.027 267.250 C 360.877 262.514, 359.726 262.207, 353.500 264.713 M 424 275.047 C 375.210 275.557, 365.515 275.899, 360 277.301 C 356.425 278.210, 340.225 280.303, 324 281.953 C 307.775 283.603, 288.650 285.668, 281.500 286.542 L 268.500 288.130 254.092 285.065 C 246.168 283.379, 237.542 282, 234.925 282 C 225.911 282, 215.334 288.639, 211.028 297 C 206.109 306.551, 200.909 331.409, 198.933 354.818 C 197.424 372.706, 198.262 413.023, 200.477 429 C 201.353 435.325, 203.136 445.225, 204.439 451 C 209.090 471.612, 213.282 478.986, 223.157 483.920 C 232.497 488.588, 234.037 488.619, 253.117 484.533 L 270.293 480.854 281.735 482.427 C 288.028 483.292, 294.037 484, 295.088 484 C 297.797 484, 297.457 481.382, 294.405 478.743 C 290.567 475.426, 289.189 472.144, 286.416 459.724 C 279.881 430.444, 276.927 392.201, 278.869 362.017 C 280.858 331.111, 285.599 304.493, 290.653 295.863 C 294.197 289.811, 295.843 289.270, 319 286.561 C 364.676 281.217, 367.686 281.062, 427.967 280.961 C 484.263 280.866, 485.300 280.828, 489.613 278.733 C 496.063 275.599, 495.382 273.951, 487.750 274.223 C 484.313 274.345, 455.625 274.716, 424 275.047 M 222 275.666 C 214.933 276.779, 214.813 276.865, 215.534 280.287 C 216.571 285.210, 217.497 285.606, 222.334 283.190 C 224.734 281.991, 228.116 280.727, 229.849 280.380 C 233.108 279.728, 233.421 279.261, 232.393 276.582 C 231.795 275.024, 228.127 274.701, 222 275.666 M 1312.035 278.934 C 1311.340 280.233, 1311 315.577, 1311 386.434 C 1311 479.604, 1311.176 492, 1312.500 492 C 1313.824 492, 1314 479.389, 1314 384.500 C 1314 325.375, 1313.791 277, 1313.535 277 C 1313.280 277, 1312.605 277.870, 1312.035 278.934 M 292 281.500 C 292 282.433, 292.944 283, 294.500 283 C 296.056 283, 297 282.433, 297 281.500 C 297 280.567, 296.056 280, 294.500 280 C 292.944 280, 292 280.567, 292 281.500 M 578.363 281.497 C 578.017 282.398, 578.196 283.596, 578.761 284.161 C 580.391 285.791, 583.500 284.692, 583.500 282.486 C 583.500 279.943, 579.272 279.128, 578.363 281.497 M 912.500 281 C 912.160 281.550, 910.784 282, 909.441 282 C 908.098 282, 907 282.450, 907 283 C 907 283.550, 908.260 284, 909.800 284 C 911.340 284, 913.143 284.543, 913.807 285.207 C 915.401 286.801, 918.540 283.850, 917.668 281.578 C 916.997 279.829, 913.468 279.434, 912.500 281 M 996.247 281.153 C 995.453 281.947, 995.402 282.883, 996.082 284.153 C 997.278 286.388, 999.314 286.532, 1001 284.500 C 1003.348 281.671, 998.877 278.523, 996.247 281.153 M 281 282.500 C 281 283.548, 282.056 284, 284.500 284 C 286.944 284, 288 283.548, 288 282.500 C 288 281.452, 286.944 281, 284.500 281 C 282.056 281, 281 281.452, 281 282.500 M 361 284.064 C 356.325 284.499, 340.152 286.339, 325.060 288.152 C 293.025 292.001, 293.358 291.863, 290.017 302.681 C 280.769 332.622, 278.046 386.655, 283.576 430.500 C 286.556 454.124, 291.555 474.371, 294.922 476.452 C 296.872 477.657, 330.189 482.069, 355.500 484.473 C 374.172 486.247, 481 486.733, 481 485.044 C 481 484.519, 479.910 482.482, 478.577 480.519 C 476.303 477.168, 474 469.334, 474 464.951 C 474 463.051, 473.013 463, 436.250 462.991 C 397.358 462.982, 378.250 462.091, 360.012 459.434 C 341.249 456.702, 314.632 450.978, 309.270 448.523 C 299.721 444.152, 295.956 434.403, 294.005 409 C 291.348 374.388, 294.256 338.316, 300.591 327.324 C 304.756 320.097, 316.947 315.909, 349.493 310.527 C 372.564 306.711, 385.029 306.021, 431.135 306.010 L 473.770 306 474.487 300.260 C 475.185 294.669, 477.944 287.771, 479.986 286.509 C 480.544 286.164, 481 285.234, 481 284.441 C 481 283.202, 473.187 283.019, 425.250 283.136 C 394.587 283.211, 365.675 283.629, 361 284.064 M 196 286.179 C 177.088 290.231, 154.723 296.226, 132.500 303.200 C 119.201 307.373, 90.245 318.502, 88.567 320.086 C 86.042 322.468, 89.683 321.589, 99.589 317.425 C 119.663 308.987, 156.708 297.476, 183 291.507 C 199.566 287.747, 202 287.036, 202 285.961 C 202 284.874, 202.103 284.871, 196 286.179 M 229.500 288.403 C 227.850 289.131, 225.731 290.591, 224.791 291.647 C 216.614 300.834, 208.031 347.308, 208.011 382.500 C 207.993 414.731, 214.381 457, 221.414 471.197 C 225.018 478.470, 228.122 481.032, 234.504 482.001 C 239.049 482.690, 247.558 481.738, 251.500 480.099 C 252.600 479.641, 254.850 478.861, 256.500 478.364 C 259.324 477.514, 259.518 477.125, 259.799 471.756 C 259.964 468.619, 259.614 465.147, 259.022 464.040 C 257.906 461.956, 257.375 459.658, 253.930 442 C 251.870 431.443, 251.518 429.275, 250.515 421 C 248.440 403.878, 247.808 374.300, 249.232 361 C 251.819 336.828, 255.712 313.899, 258.399 307 C 259.149 305.075, 260.070 301.234, 260.446 298.463 C 261.355 291.757, 259.926 290.574, 248.500 288.578 C 237.673 286.687, 233.474 286.648, 229.500 288.403 M 489 299.450 C 489 300.248, 488.235 301.329, 487.300 301.852 C 485.877 302.648, 485.755 303.433, 486.550 306.652 C 487.470 310.378, 487.651 310.510, 492.250 310.805 C 494.863 310.972, 497.042 310.747, 497.094 310.305 C 497.745 304.696, 497.373 300, 496.276 300 C 495.574 300, 495 299.550, 495 299 C 495 298.450, 493.650 298, 492 298 C 490.046 298, 489 298.506, 489 299.450 M 264.446 307.087 C 263.539 308.555, 264.890 309.661, 268.519 310.423 C 271.891 311.132, 275.764 309.045, 274.594 307.152 C 273.690 305.690, 265.342 305.637, 264.446 307.087 M 378.500 309.121 C 354.762 311.155, 317.524 318.181, 309.876 322.070 C 298.829 327.686, 295.930 340.353, 295.930 383 C 295.931 412.487, 297.466 428.565, 301.087 436.981 C 305.089 446.283, 310.550 448.502, 344.026 454.422 C 372.165 459.398, 381.366 460.008, 428.873 460.050 C 453.277 460.071, 473.392 459.942, 473.571 459.763 C 473.750 459.583, 473.969 425.476, 474.057 383.968 L 474.218 308.500 431.359 308.382 C 407.786 308.317, 384 308.650, 378.500 309.121 M 181.500 311.180 C 130.188 323.659, 113.964 328.477, 108.901 332.737 C 104.361 336.557, 102.172 342.265, 101.495 352.054 C 100.330 368.874, 100.389 368.679, 96.207 369.378 C 89.543 370.494, 89.500 370.590, 89.500 384.544 C 89.500 398.661, 90.119 400, 96.646 400 C 100.424 400, 100.491 400.221, 101.548 415.958 C 102.509 430.283, 105.551 435.696, 114.811 439.566 C 121.994 442.567, 148.966 450.034, 166.500 453.876 C 192.879 459.655, 191.298 459.393, 190.805 457.914 C 190.547 457.141, 184.986 455.504, 177.053 453.865 C 158.245 449.979, 136.524 444.443, 123.694 440.268 C 111.374 436.258, 106.954 433.154, 105.223 427.298 C 102.963 419.648, 101.606 382.197, 102.899 363.156 C 104.191 344.139, 105.072 339.795, 108.373 336.155 C 111.285 332.945, 114.853 331.225, 125.446 327.927 C 135.528 324.788, 175.040 314.802, 184.750 312.939 C 188.188 312.279, 191 311.348, 191 310.870 C 191 309.774, 186.704 309.914, 181.500 311.180 M 563 320 C 563 322.833, 562.778 323, 559 323 L 555 323 555 329 C 555 334.333, 555.222 335, 557 335 C 558.100 335, 559 334.550, 559 334 C 559 331.899, 560.812 333.131, 562.023 336.056 C 563.382 339.335, 562.768 340.577, 559.500 341.166 C 557.686 341.493, 557.478 342.409, 557.268 351.008 C 557.137 356.336, 556.589 360.637, 556.018 360.827 C 555.354 361.049, 555 372.968, 555 395.072 L 555 428.976 559 429.616 L 563 430.256 563 441.628 C 563 451.070, 563.255 453, 564.500 453 C 565.819 453, 566 444.778, 566 385 C 566 325.222, 565.819 317, 564.500 317 C 563.500 317, 563 318, 563 320 M 486.050 323.930 C 483.976 326.842, 483.965 327.019, 485.682 329.717 C 488.043 333.426, 488.931 333.967, 492.691 333.985 C 496.546 334.003, 497.367 332.856, 497.472 327.309 C 497.546 323.356, 497.341 323.018, 494.526 322.456 C 492.862 322.123, 490.755 321.642, 489.845 321.388 C 488.810 321.099, 487.387 322.052, 486.050 323.930 M 77.500 327 C 77.160 327.550, 76.039 328, 75.008 328 C 73.978 328, 72.849 328.900, 72.500 330 C 72.151 331.100, 71.028 332, 70.005 332 C 68.477 332, 68.034 333.030, 67.530 337.750 C 67.192 340.913, 66.689 344.962, 66.413 346.750 C 66.028 349.232, 66.275 350, 67.455 350 C 69.714 350, 69.344 352.677, 67 353.290 C 65.185 353.764, 65 354.654, 65 362.906 C 65 370.323, 65.277 372, 66.500 372 C 67.728 372, 68 373.722, 68 381.500 C 68 389.531, 67.753 391, 66.404 391 C 64.997 391, 64.864 392.629, 65.282 404.750 C 65.542 412.313, 66.342 422.887, 67.060 428.250 C 68.131 436.249, 68.671 438, 70.066 438 C 71.001 438, 72.002 438.900, 72.290 440 C 72.603 441.197, 73.654 442, 74.906 442 C 76.361 442, 77 442.636, 77 444.083 C 77 445.304, 77.518 445.995, 78.250 445.753 C 79.090 445.474, 79.595 442.507, 79.788 436.705 C 80.031 429.446, 79.730 427.392, 77.902 423.808 C 75.920 419.923, 75.785 418.595, 76.377 408.840 C 76.794 401.980, 76.663 397.910, 76.014 397.508 C 74.847 396.787, 74.593 372.740, 75.741 371.593 C 76.148 371.186, 76.485 365.373, 76.491 358.676 C 76.498 348.699, 76.816 346.053, 78.250 344.027 C 79.555 342.184, 80 339.576, 80 333.777 C 80 326.697, 79.136 324.353, 77.500 327 M 491.491 341.250 C 490.477 345.428, 491.439 432.001, 492.500 432.001 C 493.149 432.001, 493.591 415.661, 493.760 385.500 C 493.929 355.279, 493.673 339, 493.029 339 C 492.484 339, 491.792 340.012, 491.491 341.250 M 317.753 341.907 C 312.994 342.894, 310.265 345.369, 308.924 349.913 C 308.244 352.220, 307.979 365.273, 308.183 386.500 C 308.467 416.057, 308.684 419.771, 310.264 422.096 C 313.252 426.493, 315.824 427, 335.147 427 L 353.200 427 356.600 423.600 L 360 420.200 360 384.585 L 360 348.971 356.577 345.235 L 353.154 341.500 337.327 341.315 C 328.622 341.213, 319.814 341.479, 317.753 341.907 M 255.570 364.324 C 253.682 365.706, 253.688 365.763, 255.866 366.928 C 257.091 367.584, 259.534 367.980, 261.296 367.810 C 263.730 367.574, 264.500 367.019, 264.500 365.500 C 264.500 363.937, 263.735 363.436, 261 363.205 C 259.075 363.044, 256.631 363.547, 255.570 364.324 M 94.250 371.706 C 92.066 372.126, 92 372.491, 92 384.094 C 92 396.007, 92.009 396.053, 94.565 397.025 C 99.997 399.090, 100 399.082, 100 384.500 C 100 369.808, 100.327 370.535, 94.250 371.706 M 254.446 383.087 C 253.518 384.589, 255.015 385.855, 258.531 386.543 C 261.854 387.193, 265.746 385.016, 264.594 383.152 C 263.690 381.690, 255.342 381.637, 254.446 383.087 M 256.250 401.031 C 251.846 402.801, 254.263 405, 260.613 405 C 262.854 405, 264.278 404.439, 264.677 403.399 C 265.809 400.449, 261.036 399.108, 256.250 401.031 M 488.464 441.058 C 486.890 443.550, 486.136 445.852, 486.507 447.023 C 487.236 449.318, 492.932 450.642, 495.702 449.160 C 499.246 447.263, 496.423 437, 492.358 437 C 491.625 437, 489.872 438.826, 488.464 441.058 M 502.053 442.750 C 501.480 444.813, 501.009 447.218, 501.006 448.095 C 500.999 449.900, 497.944 453, 496.171 453 C 495.527 453, 495 453.450, 495 454 C 495 454.550, 495.450 455, 496 455 C 496.550 455, 497 455.900, 497 457 C 497 458.111, 496.333 459, 495.500 459 C 494.675 459, 494 458.550, 494 458 C 494 457.450, 493.325 457, 492.500 457 C 491.675 457, 491 457.480, 491 458.067 C 491 458.653, 489.840 460.654, 488.423 462.512 C 484.787 467.279, 485.441 470.184, 490.414 471.355 C 493.101 471.987, 494.900 471.919, 496.150 471.138 C 498.575 469.624, 500 469.700, 500 471.345 C 500 473.222, 497.025 475.606, 493.694 476.399 C 491.101 477.016, 490.911 477.385, 491.194 481.283 L 491.500 485.500 496.033 485.796 C 499.705 486.036, 500.968 485.656, 502.690 483.796 C 504.691 481.633, 504.827 480.343, 505.032 461.500 C 505.152 450.500, 505.194 440.938, 505.125 440.250 C 504.867 437.665, 503.055 439.139, 502.053 442.750 M 532.683 439.650 C 531.628 440.706, 531.876 446, 532.981 446 C 534.366 446, 535.447 441.047, 534.310 439.910 C 533.791 439.391, 533.059 439.274, 532.683 439.650 M 555 447.500 C 555 452.214, 555.268 453, 556.878 453 C 559.827 453, 560.922 450.835, 560.303 446.226 C 559.818 442.607, 559.396 442, 557.368 442 C 555.164 442, 555 442.382, 555 447.500 M 88 448.877 C 88 449.921, 94.106 452.608, 111.021 459.008 C 132.341 467.074, 166.320 476.744, 193.500 482.480 C 200.100 483.873, 206.512 485.244, 207.750 485.525 C 208.988 485.807, 210 485.638, 210 485.149 C 210 484.074, 206.966 483.238, 182.500 477.565 C 151.089 470.282, 124.284 462.083, 99.230 452.094 C 87.974 447.607, 88 447.614, 88 448.877 M 528.515 460.250 C 528.180 462.587, 528.040 475.943, 528.203 489.929 L 528.500 515.357 531.414 516.136 C 533.017 516.564, 534.705 516.683, 535.164 516.398 C 535.624 516.114, 536 502.409, 536 485.941 L 536 456 532.561 456 C 529.278 456, 529.095 456.192, 528.515 460.250 M 264.937 459.576 C 263.093 461.797, 265.463 463.224, 269.914 462.573 C 276.499 461.608, 276.617 458, 270.063 458 C 267.807 458, 265.710 458.645, 264.937 459.576 M 498.370 463.250 C 498.701 464.488, 498.979 466.063, 498.986 466.750 C 499.003 468.290, 501.632 468.404, 502.559 466.905 C 503.488 465.401, 500.995 461, 499.214 461 C 498.201 461, 497.948 461.675, 498.370 463.250 M 301 482.481 C 301 484.433, 301.522 484.524, 330 487.542 C 343.475 488.970, 357.875 490.990, 362 492.032 C 368.892 493.772, 374.544 493.949, 431.750 494.213 C 473.493 494.406, 494 494.166, 494 493.483 C 494 492.923, 491.413 491.456, 488.250 490.222 C 482.534 487.992, 482.168 487.979, 426.045 487.982 C 367.236 487.985, 356.104 487.450, 321.500 482.959 C 303.237 480.589, 301 480.537, 301 482.481 M 579.498 484.645 C 577.999 486.144, 577.995 486.423, 579.445 487.873 C 580.746 489.175, 581.388 489.239, 583.003 488.230 C 584.086 487.554, 585.879 487, 586.986 487 C 588.094 487, 589 486.550, 589 486 C 589 485.450, 588.070 485, 586.934 485 C 585.798 485, 584.029 484.551, 583.004 484.002 C 581.615 483.259, 580.720 483.423, 579.498 484.645 M 996.946 484.054 C 996.151 484.558, 994.450 484.976, 993.167 484.985 C 991.726 484.994, 991.009 485.478, 991.292 486.250 C 991.544 486.938, 992.344 487.358, 993.070 487.185 C 993.795 487.012, 995.411 487.417, 996.660 488.086 C 998.459 489.049, 999.251 489.037, 1000.466 488.028 C 1001.310 487.328, 1002 486.376, 1002 485.913 C 1002 484.390, 998.469 483.091, 996.946 484.054 M 1079.947 484.564 C 1079.123 485.557, 1077.799 485.916, 1076.324 485.545 C 1074.646 485.124, 1074 485.390, 1074 486.500 C 1074 487.623, 1074.646 487.876, 1076.391 487.438 C 1077.706 487.108, 1079.082 487.324, 1079.450 487.919 C 1080.441 489.522, 1083.975 489.229, 1084.643 487.487 C 1085.218 485.990, 1083.457 483, 1082 483 C 1081.585 483, 1080.661 483.704, 1079.947 484.564 M 216.098 487.149 C 214.262 492.415, 214.522 492.686, 222.541 493.878 C 232.365 495.340, 232 495.394, 232 492.475 C 232 490.706, 231.256 489.668, 229.514 489.005 C 228.146 488.485, 225.137 487.146, 222.826 486.030 C 217.427 483.422, 217.395 483.427, 216.098 487.149 M 282 486.500 C 282 487.548, 283.056 488, 285.500 488 C 287.944 488, 289 487.548, 289 486.500 C 289 485.452, 287.944 485, 285.500 485 C 283.056 485, 282 485.452, 282 486.500 M 293 487.500 C 293 488.500, 294 489, 296 489 C 298 489, 299 488.500, 299 487.500 C 299 486.500, 298 486, 296 486 C 294 486, 293 486.500, 293 487.500 M 302 488.500 C 302 489.500, 303 490, 305 490 C 307 490, 308 489.500, 308 488.500 C 308 487.500, 307 487, 305 487 C 303 487, 302 487.500, 302 488.500 M 312 489.500 C 312 490.433, 312.944 491, 314.500 491 C 316.056 491, 317 490.433, 317 489.500 C 317 488.567, 316.056 488, 314.500 488 C 312.944 488, 312 488.567, 312 489.500 M 322 490.500 C 322 491.433, 322.944 492, 324.500 492 C 326.056 492, 327 491.433, 327 490.500 C 327 489.567, 326.056 489, 324.500 489 C 322.944 489, 322 489.567, 322 490.500 M 350.103 496.957 C 348.619 503.875, 348.499 503.533, 352.866 504.842 C 359.556 506.846, 360.899 506.437, 363.027 501.750 C 364.088 499.413, 364.966 496.972, 364.978 496.328 C 365.001 495.088, 360.911 493.525, 354.853 492.458 L 351.205 491.816 350.103 496.957 M 213.158 499.866 C 211.284 506.122, 211.108 506, 222 506 L 232 506 232 501.639 L 232 497.279 226.750 496.648 C 223.863 496.301, 219.884 496.013, 217.908 496.009 C 214.603 496.001, 214.224 496.308, 213.158 499.866 M 547 514.800 C 547 517.793, 549.858 518, 591.266 518 C 631.714 518, 637 517.649, 637 514.965 C 637 514.359, 620.239 514, 592 514 C 567.250 514, 547 514.360, 547 514.800 M 664.241 515.222 C 664.465 515.895, 665.740 516.750, 667.074 517.123 C 668.408 517.496, 687.642 517.845, 709.816 517.900 C 748.805 517.997, 754 517.652, 754 514.965 C 754 514.359, 737.210 514, 708.917 514 C 673.837 514, 663.924 514.271, 664.241 515.222 M 1041 515.025 C 1041 517.547, 1047.872 518, 1086.131 518 C 1124.746 518, 1130 517.636, 1130 514.965 C 1130 514.360, 1113.418 514, 1085.500 514 C 1055.783 514, 1041 514.340, 1041 515.025 M 1150 514.965 C 1150 517.637, 1155.257 518, 1194 518 C 1232.743 518, 1238 517.637, 1238 514.965 C 1238 514.360, 1221.597 514, 1194 514 C 1166.403 514, 1150 514.360, 1150 514.965" stroke="none" fill="#1e364d" fill-rule="evenodd"/><path d="M 1 384 L 1 767 688 767 L 1375 767 1375 384 L 1375 1 688 1 L 1 1 1 384 M 258.046 232.246 C 252.740 234.986, 246.059 250.541, 248.896 253.550 C 249.409 254.095, 249.423 255.460, 248.928 256.750 C 248.159 258.754, 247.378 258.999, 241.782 258.993 C 237.467 258.988, 233.151 258.135, 228 256.268 L 220.500 253.550 185 253.525 C 149.968 253.500, 149.210 253.543, 127.500 256.777 C 95.236 261.582, 91.661 263.708, 82.443 283.569 C 76.465 296.449, 69.557 313.386, 67.615 319.923 C 64.324 331.007, 62.598 353.150, 62.582 384.500 C 62.558 431.615, 64.789 445.609, 76.687 473 C 87.925 498.870, 92.845 505.453, 103.173 508.440 C 106.103 509.287, 117.950 511.447, 129.500 513.240 C 150.264 516.463, 150.882 516.499, 184.500 516.418 C 218.368 516.336, 218.534 516.325, 227.265 513.668 C 240.649 509.594, 251.948 510.306, 248.958 515.034 C 247.266 517.710, 247.965 521.968, 250.972 527.297 C 255.055 534.531, 257.388 536.795, 261.573 537.580 C 266.744 538.550, 270 536.789, 270 533.021 C 270 531.002, 269.502 530, 268.500 530 C 267.675 530, 267 530.450, 267 531 C 267 533.633, 265.187 531.408, 262.722 525.750 C 259.762 518.953, 259.401 517, 261.108 517 C 261.759 517, 261.983 516.070, 261.652 514.749 L 261.087 512.498 308.525 512.859 C 355.314 513.214, 356.013 513.190, 359.539 511.110 C 363.053 509.036, 364.011 509, 415.123 509 C 452.693 509, 467.738 508.678, 469.316 507.839 C 470.517 507.200, 473.589 504.920, 476.142 502.773 L 480.784 498.869 498.642 499.185 L 516.500 499.500 516.500 497.024 C 516.500 495.231, 515.810 494.360, 514 493.867 C 503.422 490.984, 494 487.720, 494 486.938 C 494 486.422, 496.240 486, 498.977 486 C 506.858 486, 507.142 485.122, 506.792 461.862 C 506.631 451.213, 506.109 441.698, 505.631 440.718 C 504.818 439.051, 505.557 438.955, 517.131 439.218 L 529.500 439.500 529.155 446.500 C 528.948 450.682, 528.238 454.142, 527.390 455.095 C 526.217 456.413, 526.016 461.974, 526.235 487.091 L 526.500 517.492 530.691 518.376 C 538.420 520.005, 538 521.835, 538 486.518 C 538 465.614, 537.635 454.387, 536.917 453.236 C 536.198 452.083, 536.116 449.487, 536.673 445.500 L 537.512 439.500 545.006 439.500 L 552.500 439.500 552.791 447.211 L 553.083 454.921 549.866 455.755 C 544.176 457.229, 542.493 460.807, 542.545 471.324 C 542.594 481.455, 544.206 485.512, 548.623 486.620 C 551.245 487.278, 551.913 490, 549.452 490 C 548.601 490, 546.801 491.191, 545.452 492.646 C 543.195 495.082, 543 496.073, 543 505.130 C 543 514.587, 543.113 515.095, 545.917 518.234 L 548.834 521.500 590.167 521.809 C 627.400 522.087, 631.817 521.951, 634.697 520.430 C 639.742 517.766, 641.305 513.270, 640.807 502.856 L 640.384 494 650.192 494 L 660 494 660 504.600 L 660 515.200 663.431 518.631 L 666.863 522.063 709.367 521.781 L 751.870 521.500 755.012 518.500 L 758.153 515.500 757.827 504.749 L 757.500 493.998 897.558 493.999 L 1037.616 494 1037.197 502.766 C 1036.887 509.254, 1037.187 512.512, 1038.353 515.302 C 1041.114 521.911, 1041.754 522, 1086.564 522 C 1121.779 522, 1126.506 521.814, 1129.017 520.331 C 1133.514 517.675, 1134.500 514.705, 1134.496 503.838 L 1134.492 494 1139.996 493.999 L 1145.500 493.999 1145.500 504.975 C 1145.500 515.635, 1145.580 516.030, 1148.272 518.725 L 1151.044 521.500 1192.951 521.781 L 1234.859 522.063 1238.483 518.881 L 1242.106 515.700 1241.918 505.100 L 1241.730 494.500 1244.365 494.184 L 1247 493.867 1247 504.734 C 1247 511.852, 1247.414 516.014, 1248.200 516.800 C 1248.860 517.460, 1251.121 518, 1253.225 518 C 1258.191 518, 1259 515.951, 1259 503.383 L 1259 493.895 1264.250 494.198 C 1268.824 494.461, 1269.541 494.790, 1269.820 496.750 C 1270.288 500.045, 1274 499.823, 1274 496.500 C 1274 494.136, 1274.300 494, 1279.500 494 L 1285 494 1285 490.067 C 1285 487.012, 1285.447 485.993, 1287.001 485.500 C 1290.048 484.533, 1291.277 481.336, 1290.527 476.335 C 1290.009 472.879, 1289.325 471.694, 1287.431 470.974 C 1284.257 469.767, 1284.139 465.854, 1287.236 464.487 C 1292.021 462.375, 1292.174 451.777, 1287.446 449.980 C 1285.349 449.182, 1285 448.404, 1285 444.525 L 1285 440 1292.425 440 L 1299.851 440 1300.175 466.082 C 1300.480 490.541, 1300.621 492.252, 1302.441 493.582 C 1305.024 495.469, 1310.472 495.385, 1312.429 493.429 C 1313.838 492.020, 1314 480.776, 1314 384.629 C 1314 302.562, 1313.718 277.118, 1312.800 276.200 C 1311.473 274.873, 1304.190 274.592, 1302.298 275.795 C 1301.442 276.339, 1300.893 284.117, 1300.392 302.780 L 1299.688 329 1292.344 329 L 1285 329 1285 324 C 1285 320.310, 1285.378 319, 1286.443 319 C 1290.733 319, 1292.627 308.627, 1289 305 C 1287.900 303.900, 1286.550 303, 1286 303 C 1283.799 303, 1285.127 299.048, 1287.750 297.796 C 1290.169 296.641, 1290.537 295.842, 1290.805 291.160 C 1291.132 285.453, 1289.951 283, 1286.878 283 C 1285.354 283, 1285 282.246, 1285 279 L 1285 275 1279.500 275 C 1274.300 275, 1274 274.864, 1274 272.500 C 1274 270.500, 1273.500 270, 1271.500 270 C 1269.500 270, 1269 270.500, 1269 272.500 C 1269 274.833, 1268.667 275, 1264 275 L 1259 275 1259 267.723 C 1259 259.187, 1257.396 256, 1253.098 256 C 1248.426 256, 1247 258.650, 1247 267.329 C 1247 274.175, 1246.797 275, 1245.117 275 C 1242.849 275, 1242.032 272.413, 1242.014 265.173 C 1242.002 260.628, 1241.571 259.417, 1239.077 256.923 L 1236.154 254 1194.093 254 L 1152.032 254 1148.790 256.896 C 1145.766 259.598, 1145.524 260.300, 1145.165 267.396 L 1144.781 275 1139.891 275 L 1135 275 1134.994 270.250 C 1134.986 263.454, 1133.328 258.403, 1130.331 256.045 C 1127.805 254.059, 1126.527 254, 1085.765 254 L 1043.800 254 1040.400 257.400 C 1037.172 260.628, 1037 261.159, 1037 267.900 L 1037 275 897.500 275 L 758 275 758 269.468 C 758 266.425, 757.373 262.434, 756.606 260.599 C 753.770 253.812, 755.148 254, 708.333 254 L 666.112 254 663.306 256.411 C 660.784 258.577, 660.449 259.616, 660 266.661 L 659.500 274.500 650.384 274.786 L 641.268 275.072 640.772 267.354 C 640.316 260.245, 640.029 259.415, 637.123 256.818 L 633.968 254 591.561 254 L 549.154 254 546.115 257.039 C 542.499 260.655, 541.571 264.757, 542.243 274.149 C 542.666 280.061, 543.170 281.568, 545.558 284.060 C 547.107 285.677, 549.227 287, 550.270 287 C 552.779 287, 551.941 289.412, 549.296 289.803 C 548.170 289.970, 546.186 291.238, 544.887 292.621 C 542.757 294.887, 542.524 296.047, 542.512 304.405 C 542.498 315.340, 543.700 318.282, 549.171 320.695 C 552.616 322.215, 553 322.756, 553 326.085 C 553 330.489, 552.062 331, 543.986 331 C 537.692 331, 537.891 331.181, 536.486 324.209 C 536.098 322.282, 536.280 320.367, 536.926 319.589 C 537.691 318.668, 537.948 308.785, 537.765 287.380 L 537.500 256.500 534.444 256.201 C 532.763 256.037, 530.175 256.363, 528.694 256.926 L 526 257.950 526 287.647 C 526 311.599, 526.269 317.648, 527.392 318.921 C 528.158 319.790, 529.100 322.863, 529.486 325.750 L 530.188 331 517.594 331 C 506.134 331, 503.036 330.332, 506 328.500 C 506.612 328.122, 507 320.219, 507 308.130 C 507 289.670, 506.867 288.235, 504.972 286.201 C 503.021 284.106, 501.397 283.473, 496 282.703 C 493.749 282.382, 493.949 282.136, 498.004 280.235 C 500.482 279.074, 504.757 277.590, 507.504 276.938 C 510.252 276.287, 513.513 275.368, 514.750 274.898 C 517.421 273.883, 517.741 270.498, 515.255 269.545 C 514.296 269.176, 505.749 269.192, 496.262 269.580 L 479.012 270.285 474.049 265.643 C 471.319 263.089, 468.954 260.910, 468.793 260.801 C 468.378 260.519, 368.877 259.056, 309.750 258.463 C 282.387 258.188, 260 257.577, 260 257.104 C 260 256.632, 260.675 255.685, 261.500 255 C 262.325 254.315, 263 253.135, 263 252.378 C 263 251.620, 262.325 251, 261.500 251 C 259.753 251, 259.669 250.598, 260.920 248.236 C 261.426 247.281, 262.828 243.912, 264.036 240.750 C 265.321 237.385, 266.837 235, 267.689 235 C 268.537 235, 269.008 234.268, 268.815 233.250 C 268.396 231.041, 261.605 230.409, 258.046 232.246 M 107.994 266.934 C 102.746 268.531, 98.907 271.188, 96.661 274.778 C 93.453 279.908, 83.954 301, 84.853 301 C 86.360 301, 94.115 292.082, 103.401 279.671 C 108.681 272.615, 113 266.652, 113 266.421 C 113 265.828, 110.933 266.040, 107.994 266.934 M 486.174 298.314 C 483.124 301.561, 483.195 307.895, 486.314 310.826 C 488.754 313.118, 491 313.681, 491 312 C 491 311.450, 490.341 311, 489.535 311 C 486.166 311, 484.696 302.447, 487.571 299.571 C 488.436 298.707, 489.561 298, 490.071 298 C 490.582 298, 491 297.550, 491 297 C 491 295.229, 488.411 295.934, 486.174 298.314 M 494 296.455 C 494 296.705, 495.125 298.034, 496.500 299.409 C 497.875 300.784, 499 302.808, 499 303.907 C 499 306.875, 496.871 311, 495.339 311 C 494.603 311, 494 311.450, 494 312 C 494 313.642, 495.358 313.151, 498.260 310.460 C 501.639 307.326, 501.915 302.434, 498.927 298.635 C 497.166 296.395, 494 294.994, 494 296.455 M 77.126 320.999 C 70.589 324.602, 68.866 325.974, 69.528 327.046 C 69.807 327.496, 71.939 326.775, 74.267 325.444 C 81.721 321.182, 82.960 322.301, 82.986 333.315 C 82.995 337.167, 82.241 340.879, 80.750 344.315 C 78.556 349.370, 78.500 350.388, 78.500 385 C 78.500 416.924, 78.676 420.822, 80.250 423.700 C 81.588 426.148, 82 429.265, 82 436.950 C 82 443.199, 81.609 447, 80.967 447 C 80.398 447, 77.654 445.845, 74.867 444.433 C 69.693 441.811, 66.896 441.958, 70.502 444.663 C 72.609 446.244, 83.569 452, 84.471 452 C 84.762 452, 85 421.850, 85 385 C 85 332.057, 84.738 318.004, 83.750 318.018 C 83.063 318.028, 80.082 319.369, 77.126 320.999 M 488.500 319.155 C 485.169 320.977, 484 323.175, 484 327.619 C 484 331.004, 484.529 332.271, 486.635 333.927 C 490.293 336.805, 495.452 336.639, 498.545 333.545 C 505.416 326.675, 496.943 314.537, 488.500 319.155 M 487.455 322.455 C 484.739 325.170, 484.428 327.045, 486.150 330.316 C 487.708 333.276, 488.940 333.967, 492.693 333.985 C 498.480 334.012, 500.860 327.634, 496.927 322.635 C 494.305 319.300, 490.678 319.231, 487.455 322.455 M 1285 354 L 1285 363 1289.750 363.006 C 1292.362 363.010, 1295.737 363.658, 1297.250 364.447 L 1300 365.881 1300 355.441 L 1300 345 1292.500 345 L 1285 345 1285 354 M 1299 386.965 C 1299 406.376, 1299.176 406, 1290.066 406 L 1285 406 1285 415 L 1285 424 1292.346 424 L 1299.691 424 1300.342 411.250 C 1301.335 391.768, 1301.155 370, 1300 370 C 1299.373 370, 1299 376.322, 1299 386.965 M 488.500 435.155 C 485.995 436.525, 484 438.979, 484 440.691 C 484 442.754, 485.796 442.217, 486.519 439.939 C 487.522 436.779, 491.289 435.463, 494.968 436.987 C 499.829 439, 500.408 446.641, 495.883 449.063 C 492.919 450.649, 487.257 449.384, 486.489 446.965 C 485.863 444.993, 484 444.204, 484 445.911 C 484 447.697, 490.199 452, 492.772 452 C 496.841 452, 501 447.401, 501 442.902 C 501 436.548, 493.946 432.176, 488.500 435.155 M 485.589 460.077 C 482.054 464.278, 482.279 467.479, 486.400 471.600 C 490.187 475.387, 491.756 475.695, 496.020 473.490 C 499.496 471.692, 501 469.188, 501 465.201 C 501 461.943, 497.641 457, 495.427 457 C 493.318 457, 493.694 458.687, 495.934 459.272 C 498.728 460.003, 499.735 466.229, 497.589 469.504 C 494.776 473.798, 486.851 472.527, 485.610 467.584 C 484.838 464.506, 486.700 460.230, 489.152 459.452 C 491.321 458.763, 491.635 457, 489.589 457 C 488.813 457, 487.013 458.385, 485.589 460.077 M 85.053 469.344 C 84.962 472.520, 97.629 497.529, 100.156 499.161 C 103.333 501.213, 111.872 504.031, 112.348 503.183 C 112.794 502.387, 96.017 479.823, 89.533 472.500 C 86.304 468.852, 85.092 467.999, 85.053 469.344" stroke="none" fill="#ffffff" fill-rule="evenodd"/></svg>